<?xml version="1.0" encoding="UTF-8" standalone="no"?>
<!DOCTYPE svg PUBLIC "-//W3C//DTD SVG 1.1//EN"
 "http://www.w3.org/Graphics/SVG/1.1/DTD/svg11.dtd">
<!-- Generated by graphviz version 2.47.3 (20210619.1520)
 -->
<!-- Title: dependencies Pages: 1 -->
<svg width="1117pt" height="247pt"
 viewBox="0.00 0.00 1117.00 246.80" xmlns="http://www.w3.org/2000/svg" xmlns:xlink="http://www.w3.org/1999/xlink">
<g id="graph0" class="graph" transform="scale(1 1) rotate(0) translate(4 242.8)">
<title>dependencies</title>
<polygon fill="white" stroke="transparent" points="-4,4 -4,-242.8 1113,-242.8 1113,4 -4,4"/>
<text text-anchor="middle" x="554.5" y="-8.2" font-family="sans-serif" font-size="14.00">dependencies</text>
<g id="clust1" class="cluster">
<title>cluster_WalletModule</title>
<polygon fill="none" stroke="black" stroke-dasharray="1,5" points="8,-32.8 8,-230.8 1101,-230.8 1101,-32.8 8,-32.8"/>
</g>
<g id="clust10" class="cluster">
<title>cluster_WalletModule_exports</title>
<polygon fill="none" stroke="black" points="180,-170.8 180,-222.8 886,-222.8 886,-170.8 180,-170.8"/>
</g>
<g id="clust2" class="cluster">
<title>cluster_WalletModule_declarations</title>
<polygon fill="none" stroke="black" points="266,-40.8 266,-92.8 1093,-92.8 1093,-40.8 266,-40.8"/>
</g>
<g id="clust9" class="cluster">
<title>cluster_WalletModule_imports</title>
<polygon fill="none" stroke="black" points="16,-40.8 16,-92.8 258,-92.8 258,-40.8 16,-40.8"/>
</g>
<!-- AddComponent -->
<g id="node1" class="node">
<title>AddComponent</title>
<polygon fill="#ffffb3" stroke="black" points="1084.94,-84.8 979.06,-84.8 979.06,-48.8 1084.94,-48.8 1084.94,-84.8"/>
<text text-anchor="middle" x="1032" y="-62.6" font-family="Times,serif" font-size="14.00">AddComponent</text>
</g>
<!-- WalletModule -->
<g id="node7" class="node">
<title>WalletModule</title>
<polygon fill="#8dd3c7" stroke="black" points="613.37,-149.8 610.37,-153.8 589.37,-153.8 586.37,-149.8 516.63,-149.8 516.63,-113.8 613.37,-113.8 613.37,-149.8"/>
<text text-anchor="middle" x="565" y="-127.6" font-family="Times,serif" font-size="14.00">WalletModule</text>
</g>
<!-- AddComponent&#45;&gt;WalletModule -->
<g id="edge1" class="edge">
<title>AddComponent&#45;&gt;WalletModule</title>
<path fill="none" stroke="black" d="M1032,-84.91C1032,-104.14 1032,-131.8 1032,-131.8 1032,-131.8 623.66,-131.8 623.66,-131.8"/>
<polygon fill="black" stroke="black" points="623.66,-128.3 613.66,-131.8 623.66,-135.3 623.66,-128.3"/>
</g>
<!-- NewComponent -->
<g id="node2" class="node">
<title>NewComponent</title>
<polygon fill="#ffffb3" stroke="black" points="960.76,-84.8 853.24,-84.8 853.24,-48.8 960.76,-48.8 960.76,-84.8"/>
<text text-anchor="middle" x="907" y="-62.6" font-family="Times,serif" font-size="14.00">NewComponent</text>
</g>
<!-- NewComponent&#45;&gt;WalletModule -->
<g id="edge2" class="edge">
<title>NewComponent&#45;&gt;WalletModule</title>
<path fill="none" stroke="black" d="M865.79,-84.82C865.79,-102.17 865.79,-125.8 865.79,-125.8 865.79,-125.8 623.66,-125.8 623.66,-125.8"/>
<polygon fill="black" stroke="black" points="623.66,-122.3 613.66,-125.8 623.66,-129.3 623.66,-122.3"/>
</g>
<!-- OpenComponent -->
<g id="node3" class="node">
<title>OpenComponent</title>
<polygon fill="#ffffb3" stroke="black" points="834.65,-84.8 723.35,-84.8 723.35,-48.8 834.65,-48.8 834.65,-84.8"/>
<text text-anchor="middle" x="779" y="-62.6" font-family="Times,serif" font-size="14.00">OpenComponent</text>
</g>
<!-- OpenComponent&#45;&gt;WalletModule -->
<g id="edge3" class="edge">
<title>OpenComponent&#45;&gt;WalletModule</title>
<path fill="none" stroke="black" d="M737.4,-85.04C737.4,-100.37 737.4,-119.8 737.4,-119.8 737.4,-119.8 623.48,-119.8 623.48,-119.8"/>
<polygon fill="black" stroke="black" points="623.48,-116.3 613.48,-119.8 623.48,-123.3 623.48,-116.3"/>
</g>
<!-- RestoreComponent -->
<g id="node4" class="node">
<title>RestoreComponent</title>
<polygon fill="#ffffb3" stroke="black" points="705.09,-84.8 580.91,-84.8 580.91,-48.8 705.09,-48.8 705.09,-84.8"/>
<text text-anchor="middle" x="643" y="-62.6" font-family="Times,serif" font-size="14.00">RestoreComponent</text>
</g>
<!-- RestoreComponent&#45;&gt;WalletModule -->
<g id="edge4" class="edge">
<title>RestoreComponent&#45;&gt;WalletModule</title>
<path fill="none" stroke="black" d="M597.19,-84.91C597.19,-84.91 597.19,-103.79 597.19,-103.79"/>
<polygon fill="black" stroke="black" points="593.69,-103.79 597.19,-113.79 600.69,-103.79 593.69,-103.79"/>
</g>
<!-- TransactionsComponent -->
<g id="node5" class="node">
<title>TransactionsComponent</title>
<polygon fill="#ffffb3" stroke="black" points="563.36,-84.8 410.64,-84.8 410.64,-48.8 563.36,-48.8 563.36,-84.8"/>
<text text-anchor="middle" x="487" y="-62.6" font-family="Times,serif" font-size="14.00">TransactionsComponent</text>
</g>
<!-- TransactionsComponent&#45;&gt;WalletModule -->
<g id="edge5" class="edge">
<title>TransactionsComponent&#45;&gt;WalletModule</title>
<path fill="none" stroke="black" d="M540,-84.91C540,-84.91 540,-103.79 540,-103.79"/>
<polygon fill="black" stroke="black" points="536.5,-103.79 540,-113.79 543.5,-103.79 536.5,-103.79"/>
</g>
<!-- WalletComponent -->
<g id="node6" class="node">
<title>WalletComponent</title>
<polygon fill="#ffffb3" stroke="black" points="392.15,-84.8 273.85,-84.8 273.85,-48.8 392.15,-48.8 392.15,-84.8"/>
<text text-anchor="middle" x="333" y="-62.6" font-family="Times,serif" font-size="14.00">WalletComponent</text>
</g>
<!-- WalletComponent&#45;&gt;WalletModule -->
<g id="edge6" class="edge">
<title>WalletComponent&#45;&gt;WalletModule</title>
<path fill="none" stroke="black" d="M377.26,-85.04C377.26,-100.37 377.26,-119.8 377.26,-119.8 377.26,-119.8 506.16,-119.8 506.16,-119.8"/>
<polygon fill="black" stroke="black" points="506.16,-123.3 516.16,-119.8 506.16,-116.3 506.16,-123.3"/>
</g>
<!-- AddComponent  -->
<g id="node10" class="node">
<title>AddComponent </title>
<polygon fill="#fb8072" stroke="black" points="878.44,-214.8 769.56,-214.8 769.56,-178.8 878.44,-178.8 878.44,-214.8"/>
<text text-anchor="middle" x="824" y="-192.6" font-family="Times,serif" font-size="14.00">AddComponent </text>
</g>
<!-- WalletModule&#45;&gt;AddComponent  -->
<g id="edge9" class="edge">
<title>WalletModule&#45;&gt;AddComponent </title>
<path fill="none" stroke="black" stroke-dasharray="5,2" d="M613.57,-137.8C682.96,-137.8 802.18,-137.8 802.18,-137.8 802.18,-137.8 802.18,-168.78 802.18,-168.78"/>
<polygon fill="black" stroke="black" points="798.68,-168.78 802.18,-178.78 805.68,-168.78 798.68,-168.78"/>
</g>
<!-- NewComponent  -->
<g id="node11" class="node">
<title>NewComponent </title>
<polygon fill="#fb8072" stroke="black" points="751.76,-214.8 640.24,-214.8 640.24,-178.8 751.76,-178.8 751.76,-214.8"/>
<text text-anchor="middle" x="696" y="-192.6" font-family="Times,serif" font-size="14.00">NewComponent </text>
</g>
<!-- WalletModule&#45;&gt;NewComponent  -->
<g id="edge10" class="edge">
<title>WalletModule&#45;&gt;NewComponent </title>
<path fill="none" stroke="black" stroke-dasharray="5,2" d="M613.5,-143.8C642.09,-143.8 672.71,-143.8 672.71,-143.8 672.71,-143.8 672.71,-168.56 672.71,-168.56"/>
<polygon fill="black" stroke="black" points="669.21,-168.56 672.71,-178.56 676.21,-168.56 669.21,-168.56"/>
</g>
<!-- OpenComponent  -->
<g id="node12" class="node">
<title>OpenComponent </title>
<polygon fill="#fb8072" stroke="black" points="622.65,-214.8 507.35,-214.8 507.35,-178.8 622.65,-178.8 622.65,-214.8"/>
<text text-anchor="middle" x="565" y="-192.6" font-family="Times,serif" font-size="14.00">OpenComponent </text>
</g>
<!-- WalletModule&#45;&gt;OpenComponent  -->
<g id="edge11" class="edge">
<title>WalletModule&#45;&gt;OpenComponent </title>
<path fill="none" stroke="black" stroke-dasharray="5,2" d="M565,-149.91C565,-149.91 565,-168.79 565,-168.79"/>
<polygon fill="black" stroke="black" points="561.5,-168.79 565,-178.79 568.5,-168.79 561.5,-168.79"/>
</g>
<!-- RestoreComponent  -->
<g id="node13" class="node">
<title>RestoreComponent </title>
<polygon fill="#fb8072" stroke="black" points="489.59,-214.8 362.41,-214.8 362.41,-178.8 489.59,-178.8 489.59,-214.8"/>
<text text-anchor="middle" x="426" y="-192.6" font-family="Times,serif" font-size="14.00">RestoreComponent </text>
</g>
<!-- WalletModule&#45;&gt;RestoreComponent  -->
<g id="edge12" class="edge">
<title>WalletModule&#45;&gt;RestoreComponent </title>
<path fill="none" stroke="black" stroke-dasharray="5,2" d="M516.31,-143.8C485.01,-143.8 450.18,-143.8 450.18,-143.8 450.18,-143.8 450.18,-168.56 450.18,-168.56"/>
<polygon fill="black" stroke="black" points="446.68,-168.56 450.18,-178.56 453.68,-168.56 446.68,-168.56"/>
</g>
<!-- TransactionsComponent  -->
<g id="node14" class="node">
<title>TransactionsComponent </title>
<polygon fill="#fb8072" stroke="black" points="344.36,-214.8 187.64,-214.8 187.64,-178.8 344.36,-178.8 344.36,-214.8"/>
<text text-anchor="middle" x="266" y="-192.6" font-family="Times,serif" font-size="14.00">TransactionsComponent </text>
</g>
<!-- WalletModule&#45;&gt;TransactionsComponent  -->
<g id="edge13" class="edge">
<title>WalletModule&#45;&gt;TransactionsComponent </title>
<path fill="none" stroke="black" stroke-dasharray="5,2" d="M516.53,-137.8C442.3,-137.8 308.93,-137.8 308.93,-137.8 308.93,-137.8 308.93,-168.78 308.93,-168.78"/>
<polygon fill="black" stroke="black" points="305.43,-168.78 308.93,-178.78 312.43,-168.78 305.43,-168.78"/>
</g>
<!-- ModalModule -->
<g id="node8" class="node">
<title>ModalModule</title>
<polygon fill="#8dd3c7" stroke="black" points="250.1,-84.8 247.1,-88.8 226.1,-88.8 223.1,-84.8 153.9,-84.8 153.9,-48.8 250.1,-48.8 250.1,-84.8"/>
<text text-anchor="middle" x="202" y="-62.6" font-family="Times,serif" font-size="14.00">ModalModule</text>
</g>
<!-- ModalModule&#45;&gt;WalletModule -->
<g id="edge7" class="edge">
<title>ModalModule&#45;&gt;WalletModule</title>
<path fill="none" stroke="black" d="M218.93,-84.82C218.93,-102.17 218.93,-125.8 218.93,-125.8 218.93,-125.8 506.52,-125.8 506.52,-125.8"/>
<polygon fill="black" stroke="black" points="506.52,-129.3 516.52,-125.8 506.52,-122.3 506.52,-129.3"/>
</g>
<!-- TranslateModule -->
<g id="node9" class="node">
<title>TranslateModule</title>
<polygon fill="#8dd3c7" stroke="black" points="135.63,-84.8 132.63,-88.8 111.63,-88.8 108.63,-84.8 24.37,-84.8 24.37,-48.8 135.63,-48.8 135.63,-84.8"/>
<text text-anchor="middle" x="80" y="-62.6" font-family="Times,serif" font-size="14.00">TranslateModule</text>
</g>
<!-- TranslateModule&#45;&gt;WalletModule -->
<g id="edge8" class="edge">
<title>TranslateModule&#45;&gt;WalletModule</title>
<path fill="none" stroke="black" d="M80,-84.91C80,-104.14 80,-131.8 80,-131.8 80,-131.8 506.28,-131.8 506.28,-131.8"/>
<polygon fill="black" stroke="black" points="506.28,-135.3 516.28,-131.8 506.28,-128.3 506.28,-135.3"/>
</g>
</g>
</svg>
