<?xml version="1.0" encoding="UTF-8" standalone="no"?>
<!DOCTYPE svg PUBLIC "-//W3C//DTD SVG 1.1//EN"
 "http://www.w3.org/Graphics/SVG/1.1/DTD/svg11.dtd">
<!-- Generated by graphviz version 2.47.3 (20210619.1520)
 -->
<!-- Title: dependencies Pages: 1 -->
<svg width="993pt" height="247pt"
 viewBox="0.00 0.00 993.00 246.80" xmlns="http://www.w3.org/2000/svg" xmlns:xlink="http://www.w3.org/1999/xlink">
<g id="graph0" class="graph" transform="scale(1 1) rotate(0) translate(4 242.8)">
<title>dependencies</title>
<polygon fill="white" stroke="transparent" points="-4,4 -4,-242.8 989,-242.8 989,4 -4,4"/>
<text text-anchor="middle" x="492.5" y="-8.2" font-family="sans-serif" font-size="14.00">dependencies</text>
<g id="clust1" class="cluster">
<title>cluster_WalletModule</title>
<polygon fill="none" stroke="black" stroke-dasharray="1,5" points="8,-32.8 8,-230.8 977,-230.8 977,-32.8 8,-32.8"/>
</g>
<g id="clust2" class="cluster">
<title>cluster_WalletModule_declarations</title>
<polygon fill="none" stroke="black" points="266,-40.8 266,-92.8 969,-92.8 969,-40.8 266,-40.8"/>
</g>
<g id="clust9" class="cluster">
<title>cluster_WalletModule_exports</title>
<polygon fill="none" stroke="black" points="172,-170.8 172,-222.8 752,-222.8 752,-170.8 172,-170.8"/>
</g>
<g id="clust8" class="cluster">
<title>cluster_WalletModule_imports</title>
<polygon fill="none" stroke="black" points="16,-40.8 16,-92.8 258,-92.8 258,-40.8 16,-40.8"/>
</g>
<!-- NewComponent -->
<g id="node1" class="node">
<title>NewComponent</title>
<polygon fill="#ffffb3" stroke="black" points="960.76,-84.8 853.24,-84.8 853.24,-48.8 960.76,-48.8 960.76,-84.8"/>
<text text-anchor="middle" x="907" y="-62.6" font-family="Times,serif" font-size="14.00">NewComponent</text>
</g>
<!-- WalletModule -->
<g id="node6" class="node">
<title>WalletModule</title>
<polygon fill="#8dd3c7" stroke="black" points="535.37,-149.8 532.37,-153.8 511.37,-153.8 508.37,-149.8 438.63,-149.8 438.63,-113.8 535.37,-113.8 535.37,-149.8"/>
<text text-anchor="middle" x="487" y="-127.6" font-family="Times,serif" font-size="14.00">WalletModule</text>
</g>
<!-- NewComponent&#45;&gt;WalletModule -->
<g id="edge1" class="edge">
<title>NewComponent&#45;&gt;WalletModule</title>
<path fill="none" stroke="black" d="M907,-84.93C907,-105.37 907,-135.8 907,-135.8 907,-135.8 545.59,-135.8 545.59,-135.8"/>
<polygon fill="black" stroke="black" points="545.59,-132.3 535.59,-135.8 545.59,-139.3 545.59,-132.3"/>
</g>
<!-- OpenComponent -->
<g id="node2" class="node">
<title>OpenComponent</title>
<polygon fill="#ffffb3" stroke="black" points="834.65,-84.8 723.35,-84.8 723.35,-48.8 834.65,-48.8 834.65,-84.8"/>
<text text-anchor="middle" x="779" y="-62.6" font-family="Times,serif" font-size="14.00">OpenComponent</text>
</g>
<!-- OpenComponent&#45;&gt;WalletModule -->
<g id="edge2" class="edge">
<title>OpenComponent&#45;&gt;WalletModule</title>
<path fill="none" stroke="black" d="M733.4,-85.07C733.4,-103.36 733.4,-128.8 733.4,-128.8 733.4,-128.8 545.39,-128.8 545.39,-128.8"/>
<polygon fill="black" stroke="black" points="545.39,-125.3 535.39,-128.8 545.39,-132.3 545.39,-125.3"/>
</g>
<!-- RestoreComponent -->
<g id="node3" class="node">
<title>RestoreComponent</title>
<polygon fill="#ffffb3" stroke="black" points="705.09,-84.8 580.91,-84.8 580.91,-48.8 705.09,-48.8 705.09,-84.8"/>
<text text-anchor="middle" x="643" y="-62.6" font-family="Times,serif" font-size="14.00">RestoreComponent</text>
</g>
<!-- RestoreComponent&#45;&gt;WalletModule -->
<g id="edge3" class="edge">
<title>RestoreComponent&#45;&gt;WalletModule</title>
<path fill="none" stroke="black" d="M597.76,-84.81C597.76,-100.85 597.76,-121.8 597.76,-121.8 597.76,-121.8 545.58,-121.8 545.58,-121.8"/>
<polygon fill="black" stroke="black" points="545.58,-118.3 535.58,-121.8 545.58,-125.3 545.58,-118.3"/>
</g>
<!-- TransactionsComponent -->
<g id="node4" class="node">
<title>TransactionsComponent</title>
<polygon fill="#ffffb3" stroke="black" points="563.36,-84.8 410.64,-84.8 410.64,-48.8 563.36,-48.8 563.36,-84.8"/>
<text text-anchor="middle" x="487" y="-62.6" font-family="Times,serif" font-size="14.00">TransactionsComponent</text>
</g>
<!-- TransactionsComponent&#45;&gt;WalletModule -->
<g id="edge4" class="edge">
<title>TransactionsComponent&#45;&gt;WalletModule</title>
<path fill="none" stroke="black" d="M487,-84.91C487,-84.91 487,-103.79 487,-103.79"/>
<polygon fill="black" stroke="black" points="483.5,-103.79 487,-113.79 490.5,-103.79 483.5,-103.79"/>
</g>
<!-- WalletComponent -->
<g id="node5" class="node">
<title>WalletComponent</title>
<polygon fill="#ffffb3" stroke="black" points="392.15,-84.8 273.85,-84.8 273.85,-48.8 392.15,-48.8 392.15,-84.8"/>
<text text-anchor="middle" x="333" y="-62.6" font-family="Times,serif" font-size="14.00">WalletComponent</text>
</g>
<!-- WalletComponent&#45;&gt;WalletModule -->
<g id="edge5" class="edge">
<title>WalletComponent&#45;&gt;WalletModule</title>
<path fill="none" stroke="black" d="M373.26,-84.81C373.26,-100.85 373.26,-121.8 373.26,-121.8 373.26,-121.8 428.44,-121.8 428.44,-121.8"/>
<polygon fill="black" stroke="black" points="428.44,-125.3 438.44,-121.8 428.44,-118.3 428.44,-125.3"/>
</g>
<!-- NewComponent  -->
<g id="node9" class="node">
<title>NewComponent </title>
<polygon fill="#fb8072" stroke="black" points="743.76,-214.8 632.24,-214.8 632.24,-178.8 743.76,-178.8 743.76,-214.8"/>
<text text-anchor="middle" x="688" y="-192.6" font-family="Times,serif" font-size="14.00">NewComponent </text>
</g>
<!-- WalletModule&#45;&gt;NewComponent  -->
<g id="edge8" class="edge">
<title>WalletModule&#45;&gt;NewComponent </title>
<path fill="none" stroke="black" stroke-dasharray="5,2" d="M535.69,-142.8C589.52,-142.8 668.71,-142.8 668.71,-142.8 668.71,-142.8 668.71,-168.52 668.71,-168.52"/>
<polygon fill="black" stroke="black" points="665.21,-168.52 668.71,-178.52 672.21,-168.52 665.21,-168.52"/>
</g>
<!-- OpenComponent  -->
<g id="node10" class="node">
<title>OpenComponent </title>
<polygon fill="#fb8072" stroke="black" points="614.65,-214.8 499.35,-214.8 499.35,-178.8 614.65,-178.8 614.65,-214.8"/>
<text text-anchor="middle" x="557" y="-192.6" font-family="Times,serif" font-size="14.00">OpenComponent </text>
</g>
<!-- WalletModule&#45;&gt;OpenComponent  -->
<g id="edge9" class="edge">
<title>WalletModule&#45;&gt;OpenComponent </title>
<path fill="none" stroke="black" stroke-dasharray="5,2" d="M517.43,-149.91C517.43,-149.91 517.43,-168.79 517.43,-168.79"/>
<polygon fill="black" stroke="black" points="513.93,-168.79 517.43,-178.79 520.93,-168.79 513.93,-168.79"/>
</g>
<!-- RestoreComponent  -->
<g id="node11" class="node">
<title>RestoreComponent </title>
<polygon fill="#fb8072" stroke="black" points="481.59,-214.8 354.41,-214.8 354.41,-178.8 481.59,-178.8 481.59,-214.8"/>
<text text-anchor="middle" x="418" y="-192.6" font-family="Times,serif" font-size="14.00">RestoreComponent </text>
</g>
<!-- WalletModule&#45;&gt;RestoreComponent  -->
<g id="edge10" class="edge">
<title>WalletModule&#45;&gt;RestoreComponent </title>
<path fill="none" stroke="black" stroke-dasharray="5,2" d="M460.18,-149.91C460.18,-149.91 460.18,-168.79 460.18,-168.79"/>
<polygon fill="black" stroke="black" points="456.68,-168.79 460.18,-178.79 463.68,-168.79 456.68,-168.79"/>
</g>
<!-- TransactionsComponent  -->
<g id="node12" class="node">
<title>TransactionsComponent </title>
<polygon fill="#fb8072" stroke="black" points="336.36,-214.8 179.64,-214.8 179.64,-178.8 336.36,-178.8 336.36,-214.8"/>
<text text-anchor="middle" x="258" y="-192.6" font-family="Times,serif" font-size="14.00">TransactionsComponent </text>
</g>
<!-- WalletModule&#45;&gt;TransactionsComponent  -->
<g id="edge11" class="edge">
<title>WalletModule&#45;&gt;TransactionsComponent </title>
<path fill="none" stroke="black" stroke-dasharray="5,2" d="M438.21,-142.8C384.28,-142.8 304.93,-142.8 304.93,-142.8 304.93,-142.8 304.93,-168.52 304.93,-168.52"/>
<polygon fill="black" stroke="black" points="301.43,-168.52 304.93,-178.52 308.43,-168.52 301.43,-168.52"/>
</g>
<!-- ModalModule -->
<g id="node7" class="node">
<title>ModalModule</title>
<polygon fill="#8dd3c7" stroke="black" points="250.1,-84.8 247.1,-88.8 226.1,-88.8 223.1,-84.8 153.9,-84.8 153.9,-48.8 250.1,-48.8 250.1,-84.8"/>
<text text-anchor="middle" x="202" y="-62.6" font-family="Times,serif" font-size="14.00">ModalModule</text>
</g>
<!-- ModalModule&#45;&gt;WalletModule -->
<g id="edge6" class="edge">
<title>ModalModule&#45;&gt;WalletModule</title>
<path fill="none" stroke="black" d="M214.93,-85.07C214.93,-103.36 214.93,-128.8 214.93,-128.8 214.93,-128.8 428.36,-128.8 428.36,-128.8"/>
<polygon fill="black" stroke="black" points="428.36,-132.3 438.36,-128.8 428.36,-125.3 428.36,-132.3"/>
</g>
<!-- TranslateModule -->
<g id="node8" class="node">
<title>TranslateModule</title>
<polygon fill="#8dd3c7" stroke="black" points="135.63,-84.8 132.63,-88.8 111.63,-88.8 108.63,-84.8 24.37,-84.8 24.37,-48.8 135.63,-48.8 135.63,-84.8"/>
<text text-anchor="middle" x="80" y="-62.6" font-family="Times,serif" font-size="14.00">TranslateModule</text>
</g>
<!-- TranslateModule&#45;&gt;WalletModule -->
<g id="edge7" class="edge">
<title>TranslateModule&#45;&gt;WalletModule</title>
<path fill="none" stroke="black" d="M80,-84.93C80,-105.37 80,-135.8 80,-135.8 80,-135.8 428.31,-135.8 428.31,-135.8"/>
<polygon fill="black" stroke="black" points="428.31,-139.3 438.31,-135.8 428.31,-132.3 428.31,-139.3"/>
</g>
</g>
</svg>
