<?xml version="1.0" encoding="UTF-8" standalone="no"?>
<!DOCTYPE svg PUBLIC "-//W3C//DTD SVG 1.1//EN"
 "http://www.w3.org/Graphics/SVG/1.1/DTD/svg11.dtd">
<!-- Generated by graphviz version 2.47.3 (20210619.1520)
 -->
<!-- Title: dependencies Pages: 1 -->
<svg width="865pt" height="247pt"
 viewBox="0.00 0.00 865.00 246.80" xmlns="http://www.w3.org/2000/svg" xmlns:xlink="http://www.w3.org/1999/xlink">
<g id="graph0" class="graph" transform="scale(1 1) rotate(0) translate(4 242.8)">
<title>dependencies</title>
<polygon fill="white" stroke="transparent" points="-4,4 -4,-242.8 861,-242.8 861,4 -4,4"/>
<text text-anchor="middle" x="428.5" y="-8.2" font-family="sans-serif" font-size="14.00">dependencies</text>
<g id="clust1" class="cluster">
<title>cluster_WalletModule</title>
<polygon fill="none" stroke="black" stroke-dasharray="1,5" points="8,-32.8 8,-230.8 849,-230.8 849,-32.8 8,-32.8"/>
</g>
<g id="clust9" class="cluster">
<title>cluster_WalletModule_exports</title>
<polygon fill="none" stroke="black" points="291,-170.8 291,-222.8 564,-222.8 564,-170.8 291,-170.8"/>
</g>
<g id="clust2" class="cluster">
<title>cluster_WalletModule_declarations</title>
<polygon fill="none" stroke="black" points="152,-40.8 152,-92.8 841,-92.8 841,-40.8 152,-40.8"/>
</g>
<g id="clust8" class="cluster">
<title>cluster_WalletModule_imports</title>
<polygon fill="none" stroke="black" points="16,-40.8 16,-92.8 144,-92.8 144,-40.8 16,-40.8"/>
</g>
<!-- BackupComponent -->
<g id="node1" class="node">
<title>BackupComponent</title>
<polygon fill="#ffffb3" stroke="black" points="833.1,-84.8 708.9,-84.8 708.9,-48.8 833.1,-48.8 833.1,-84.8"/>
<text text-anchor="middle" x="771" y="-62.6" font-family="Times,serif" font-size="14.00">BackupComponent</text>
</g>
<!-- WalletModule -->
<g id="node6" class="node">
<title>WalletModule</title>
<polygon fill="#8dd3c7" stroke="black" points="479.37,-149.8 476.37,-153.8 455.37,-153.8 452.37,-149.8 382.63,-149.8 382.63,-113.8 479.37,-113.8 479.37,-149.8"/>
<text text-anchor="middle" x="431" y="-127.6" font-family="Times,serif" font-size="14.00">WalletModule</text>
</g>
<!-- BackupComponent&#45;&gt;WalletModule -->
<g id="edge1" class="edge">
<title>BackupComponent&#45;&gt;WalletModule</title>
<path fill="none" stroke="black" d="M771,-85.08C771,-106.12 771,-137.8 771,-137.8 771,-137.8 489.71,-137.8 489.71,-137.8"/>
<polygon fill="black" stroke="black" points="489.71,-134.3 479.71,-137.8 489.71,-141.3 489.71,-134.3"/>
</g>
<!-- NewComponent -->
<g id="node2" class="node">
<title>NewComponent</title>
<polygon fill="#ffffb3" stroke="black" points="690.76,-84.8 583.24,-84.8 583.24,-48.8 690.76,-48.8 690.76,-84.8"/>
<text text-anchor="middle" x="637" y="-62.6" font-family="Times,serif" font-size="14.00">NewComponent</text>
</g>
<!-- NewComponent&#45;&gt;WalletModule -->
<g id="edge2" class="edge">
<title>NewComponent&#45;&gt;WalletModule</title>
<path fill="none" stroke="black" d="M637,-84.82C637,-102.17 637,-125.8 637,-125.8 637,-125.8 489.56,-125.8 489.56,-125.8"/>
<polygon fill="black" stroke="black" points="489.56,-122.3 479.56,-125.8 489.56,-129.3 489.56,-122.3"/>
</g>
<!-- RestoreComponent -->
<g id="node3" class="node">
<title>RestoreComponent</title>
<polygon fill="#ffffb3" stroke="black" points="565.09,-84.8 440.91,-84.8 440.91,-48.8 565.09,-48.8 565.09,-84.8"/>
<text text-anchor="middle" x="503" y="-62.6" font-family="Times,serif" font-size="14.00">RestoreComponent</text>
</g>
<!-- RestoreComponent&#45;&gt;WalletModule -->
<g id="edge3" class="edge">
<title>RestoreComponent&#45;&gt;WalletModule</title>
<path fill="none" stroke="black" d="M460.19,-84.91C460.19,-84.91 460.19,-103.79 460.19,-103.79"/>
<polygon fill="black" stroke="black" points="456.69,-103.79 460.19,-113.79 463.69,-103.79 456.69,-103.79"/>
</g>
<!-- SettingsComponent -->
<g id="node4" class="node">
<title>SettingsComponent</title>
<polygon fill="#ffffb3" stroke="black" points="423.45,-84.8 296.55,-84.8 296.55,-48.8 423.45,-48.8 423.45,-84.8"/>
<text text-anchor="middle" x="360" y="-62.6" font-family="Times,serif" font-size="14.00">SettingsComponent</text>
</g>
<!-- SettingsComponent&#45;&gt;WalletModule -->
<g id="edge4" class="edge">
<title>SettingsComponent&#45;&gt;WalletModule</title>
<path fill="none" stroke="black" d="M402.9,-84.91C402.9,-84.91 402.9,-103.79 402.9,-103.79"/>
<polygon fill="black" stroke="black" points="399.4,-103.79 402.9,-113.79 406.4,-103.79 399.4,-103.79"/>
</g>
<!-- WalletComponent -->
<g id="node5" class="node">
<title>WalletComponent</title>
<polygon fill="#ffffb3" stroke="black" points="278.15,-84.8 159.85,-84.8 159.85,-48.8 278.15,-48.8 278.15,-84.8"/>
<text text-anchor="middle" x="219" y="-62.6" font-family="Times,serif" font-size="14.00">WalletComponent</text>
</g>
<!-- WalletComponent&#45;&gt;WalletModule -->
<g id="edge5" class="edge">
<title>WalletComponent&#45;&gt;WalletModule</title>
<path fill="none" stroke="black" d="M219,-84.82C219,-102.17 219,-125.8 219,-125.8 219,-125.8 372.63,-125.8 372.63,-125.8"/>
<polygon fill="black" stroke="black" points="372.63,-129.3 382.63,-125.8 372.63,-122.3 372.63,-129.3"/>
</g>
<!-- NewComponent  -->
<g id="node8" class="node">
<title>NewComponent </title>
<polygon fill="#fb8072" stroke="black" points="555.76,-214.8 444.24,-214.8 444.24,-178.8 555.76,-178.8 555.76,-214.8"/>
<text text-anchor="middle" x="500" y="-192.6" font-family="Times,serif" font-size="14.00">NewComponent </text>
</g>
<!-- WalletModule&#45;&gt;NewComponent  -->
<g id="edge7" class="edge">
<title>WalletModule&#45;&gt;NewComponent </title>
<path fill="none" stroke="black" stroke-dasharray="5,2" d="M461.9,-149.91C461.9,-149.91 461.9,-168.79 461.9,-168.79"/>
<polygon fill="black" stroke="black" points="458.4,-168.79 461.9,-178.79 465.4,-168.79 458.4,-168.79"/>
</g>
<!-- RestoreComponent  -->
<g id="node9" class="node">
<title>RestoreComponent </title>
<polygon fill="#fb8072" stroke="black" points="426.59,-214.8 299.41,-214.8 299.41,-178.8 426.59,-178.8 426.59,-214.8"/>
<text text-anchor="middle" x="363" y="-192.6" font-family="Times,serif" font-size="14.00">RestoreComponent </text>
</g>
<!-- WalletModule&#45;&gt;RestoreComponent  -->
<g id="edge8" class="edge">
<title>WalletModule&#45;&gt;RestoreComponent </title>
<path fill="none" stroke="black" stroke-dasharray="5,2" d="M404.68,-149.91C404.68,-149.91 404.68,-168.79 404.68,-168.79"/>
<polygon fill="black" stroke="black" points="401.18,-168.79 404.68,-178.79 408.18,-168.79 401.18,-168.79"/>
</g>
<!-- TranslateModule -->
<g id="node7" class="node">
<title>TranslateModule</title>
<polygon fill="#8dd3c7" stroke="black" points="135.63,-84.8 132.63,-88.8 111.63,-88.8 108.63,-84.8 24.37,-84.8 24.37,-48.8 135.63,-48.8 135.63,-84.8"/>
<text text-anchor="middle" x="80" y="-62.6" font-family="Times,serif" font-size="14.00">TranslateModule</text>
</g>
<!-- TranslateModule&#45;&gt;WalletModule -->
<g id="edge6" class="edge">
<title>TranslateModule&#45;&gt;WalletModule</title>
<path fill="none" stroke="black" d="M80,-85.08C80,-106.12 80,-137.8 80,-137.8 80,-137.8 372.56,-137.8 372.56,-137.8"/>
<polygon fill="black" stroke="black" points="372.56,-141.3 382.56,-137.8 372.56,-134.3 372.56,-141.3"/>
</g>
</g>
</svg>
