<?xml version="1.0" encoding="UTF-8" standalone="no"?>
<!DOCTYPE svg PUBLIC "-//W3C//DTD SVG 1.1//EN"
 "http://www.w3.org/Graphics/SVG/1.1/DTD/svg11.dtd">
<!-- Generated by graphviz version 2.47.3 (20210619.1520)
 -->
<!-- Title: dependencies Pages: 1 -->
<svg width="1117pt" height="247pt"
 viewBox="0.00 0.00 1117.00 246.80" xmlns="http://www.w3.org/2000/svg" xmlns:xlink="http://www.w3.org/1999/xlink">
<g id="graph0" class="graph" transform="scale(1 1) rotate(0) translate(4 242.8)">
<title>dependencies</title>
<polygon fill="white" stroke="transparent" points="-4,4 -4,-242.8 1113,-242.8 1113,4 -4,4"/>
<text text-anchor="middle" x="554.5" y="-8.2" font-family="sans-serif" font-size="14.00">dependencies</text>
<g id="clust1" class="cluster">
<title>cluster_WalletModule</title>
<polygon fill="none" stroke="black" stroke-dasharray="1,5" points="8,-32.8 8,-230.8 1101,-230.8 1101,-32.8 8,-32.8"/>
</g>
<g id="clust9" class="cluster">
<title>cluster_WalletModule_imports</title>
<polygon fill="none" stroke="black" points="851,-40.8 851,-92.8 1093,-92.8 1093,-40.8 851,-40.8"/>
</g>
<g id="clust10" class="cluster">
<title>cluster_WalletModule_exports</title>
<polygon fill="none" stroke="black" points="208,-170.8 208,-222.8 914,-222.8 914,-170.8 208,-170.8"/>
</g>
<g id="clust2" class="cluster">
<title>cluster_WalletModule_declarations</title>
<polygon fill="none" stroke="black" points="16,-40.8 16,-92.8 843,-92.8 843,-40.8 16,-40.8"/>
</g>
<!-- AddComponent -->
<g id="node1" class="node">
<title>AddComponent</title>
<polygon fill="#ffffb3" stroke="black" points="834.94,-84.8 729.06,-84.8 729.06,-48.8 834.94,-48.8 834.94,-84.8"/>
<text text-anchor="middle" x="782" y="-62.6" font-family="Times,serif" font-size="14.00">AddComponent</text>
</g>
<!-- WalletModule -->
<g id="node7" class="node">
<title>WalletModule</title>
<polygon fill="#8dd3c7" stroke="black" points="641.37,-149.8 638.37,-153.8 617.37,-153.8 614.37,-149.8 544.63,-149.8 544.63,-113.8 641.37,-113.8 641.37,-149.8"/>
<text text-anchor="middle" x="593" y="-127.6" font-family="Times,serif" font-size="14.00">WalletModule</text>
</g>
<!-- AddComponent&#45;&gt;WalletModule -->
<g id="edge1" class="edge">
<title>AddComponent&#45;&gt;WalletModule</title>
<path fill="none" stroke="black" d="M754.46,-85.04C754.46,-100.37 754.46,-119.8 754.46,-119.8 754.46,-119.8 651.44,-119.8 651.44,-119.8"/>
<polygon fill="black" stroke="black" points="651.44,-116.3 641.44,-119.8 651.44,-123.3 651.44,-116.3"/>
</g>
<!-- NewComponent -->
<g id="node2" class="node">
<title>NewComponent</title>
<polygon fill="#ffffb3" stroke="black" points="710.76,-84.8 603.24,-84.8 603.24,-48.8 710.76,-48.8 710.76,-84.8"/>
<text text-anchor="middle" x="657" y="-62.6" font-family="Times,serif" font-size="14.00">NewComponent</text>
</g>
<!-- NewComponent&#45;&gt;WalletModule -->
<g id="edge2" class="edge">
<title>NewComponent&#45;&gt;WalletModule</title>
<path fill="none" stroke="black" d="M622.28,-84.91C622.28,-84.91 622.28,-103.79 622.28,-103.79"/>
<polygon fill="black" stroke="black" points="618.78,-103.79 622.28,-113.79 625.78,-103.79 618.78,-103.79"/>
</g>
<!-- OpenComponent -->
<g id="node3" class="node">
<title>OpenComponent</title>
<polygon fill="#ffffb3" stroke="black" points="584.65,-84.8 473.35,-84.8 473.35,-48.8 584.65,-48.8 584.65,-84.8"/>
<text text-anchor="middle" x="529" y="-62.6" font-family="Times,serif" font-size="14.00">OpenComponent</text>
</g>
<!-- OpenComponent&#45;&gt;WalletModule -->
<g id="edge3" class="edge">
<title>OpenComponent&#45;&gt;WalletModule</title>
<path fill="none" stroke="black" d="M564.7,-84.91C564.7,-84.91 564.7,-103.79 564.7,-103.79"/>
<polygon fill="black" stroke="black" points="561.2,-103.79 564.7,-113.79 568.2,-103.79 561.2,-103.79"/>
</g>
<!-- RestoreComponent -->
<g id="node4" class="node">
<title>RestoreComponent</title>
<polygon fill="#ffffb3" stroke="black" points="455.09,-84.8 330.91,-84.8 330.91,-48.8 455.09,-48.8 455.09,-84.8"/>
<text text-anchor="middle" x="393" y="-62.6" font-family="Times,serif" font-size="14.00">RestoreComponent</text>
</g>
<!-- RestoreComponent&#45;&gt;WalletModule -->
<g id="edge4" class="edge">
<title>RestoreComponent&#45;&gt;WalletModule</title>
<path fill="none" stroke="black" d="M422.62,-85.04C422.62,-100.37 422.62,-119.8 422.62,-119.8 422.62,-119.8 534.63,-119.8 534.63,-119.8"/>
<polygon fill="black" stroke="black" points="534.63,-123.3 544.63,-119.8 534.63,-116.3 534.63,-123.3"/>
</g>
<!-- TransactionsComponent -->
<g id="node5" class="node">
<title>TransactionsComponent</title>
<polygon fill="#ffffb3" stroke="black" points="313.36,-84.8 160.64,-84.8 160.64,-48.8 313.36,-48.8 313.36,-84.8"/>
<text text-anchor="middle" x="237" y="-62.6" font-family="Times,serif" font-size="14.00">TransactionsComponent</text>
</g>
<!-- TransactionsComponent&#45;&gt;WalletModule -->
<g id="edge5" class="edge">
<title>TransactionsComponent&#45;&gt;WalletModule</title>
<path fill="none" stroke="black" d="M264.62,-84.82C264.62,-102.17 264.62,-125.8 264.62,-125.8 264.62,-125.8 534.55,-125.8 534.55,-125.8"/>
<polygon fill="black" stroke="black" points="534.55,-129.3 544.55,-125.8 534.55,-122.3 534.55,-129.3"/>
</g>
<!-- WalletComponent -->
<g id="node6" class="node">
<title>WalletComponent</title>
<polygon fill="#ffffb3" stroke="black" points="142.15,-84.8 23.85,-84.8 23.85,-48.8 142.15,-48.8 142.15,-84.8"/>
<text text-anchor="middle" x="83" y="-62.6" font-family="Times,serif" font-size="14.00">WalletComponent</text>
</g>
<!-- WalletComponent&#45;&gt;WalletModule -->
<g id="edge6" class="edge">
<title>WalletComponent&#45;&gt;WalletModule</title>
<path fill="none" stroke="black" d="M83,-84.91C83,-104.14 83,-131.8 83,-131.8 83,-131.8 534.56,-131.8 534.56,-131.8"/>
<polygon fill="black" stroke="black" points="534.56,-135.3 544.56,-131.8 534.56,-128.3 534.56,-135.3"/>
</g>
<!-- AddComponent  -->
<g id="node10" class="node">
<title>AddComponent </title>
<polygon fill="#fb8072" stroke="black" points="906.44,-214.8 797.56,-214.8 797.56,-178.8 906.44,-178.8 906.44,-214.8"/>
<text text-anchor="middle" x="852" y="-192.6" font-family="Times,serif" font-size="14.00">AddComponent </text>
</g>
<!-- WalletModule&#45;&gt;AddComponent  -->
<g id="edge9" class="edge">
<title>WalletModule&#45;&gt;AddComponent </title>
<path fill="none" stroke="black" stroke-dasharray="5,2" d="M641.41,-137.8C707.04,-137.8 816.12,-137.8 816.12,-137.8 816.12,-137.8 816.12,-168.78 816.12,-168.78"/>
<polygon fill="black" stroke="black" points="812.63,-168.78 816.12,-178.78 819.63,-168.78 812.63,-168.78"/>
</g>
<!-- NewComponent  -->
<g id="node11" class="node">
<title>NewComponent </title>
<polygon fill="#fb8072" stroke="black" points="779.76,-214.8 668.24,-214.8 668.24,-178.8 779.76,-178.8 779.76,-214.8"/>
<text text-anchor="middle" x="724" y="-192.6" font-family="Times,serif" font-size="14.00">NewComponent </text>
</g>
<!-- WalletModule&#45;&gt;NewComponent  -->
<g id="edge10" class="edge">
<title>WalletModule&#45;&gt;NewComponent </title>
<path fill="none" stroke="black" stroke-dasharray="5,2" d="M641.6,-143.8C665.66,-143.8 689.62,-143.8 689.62,-143.8 689.62,-143.8 689.62,-168.56 689.62,-168.56"/>
<polygon fill="black" stroke="black" points="686.13,-168.56 689.62,-178.56 693.13,-168.56 686.13,-168.56"/>
</g>
<!-- OpenComponent  -->
<g id="node12" class="node">
<title>OpenComponent </title>
<polygon fill="#fb8072" stroke="black" points="650.65,-214.8 535.35,-214.8 535.35,-178.8 650.65,-178.8 650.65,-214.8"/>
<text text-anchor="middle" x="593" y="-192.6" font-family="Times,serif" font-size="14.00">OpenComponent </text>
</g>
<!-- WalletModule&#45;&gt;OpenComponent  -->
<g id="edge11" class="edge">
<title>WalletModule&#45;&gt;OpenComponent </title>
<path fill="none" stroke="black" stroke-dasharray="5,2" d="M593,-149.91C593,-149.91 593,-168.79 593,-168.79"/>
<polygon fill="black" stroke="black" points="589.5,-168.79 593,-178.79 596.5,-168.79 589.5,-168.79"/>
</g>
<!-- RestoreComponent  -->
<g id="node13" class="node">
<title>RestoreComponent </title>
<polygon fill="#fb8072" stroke="black" points="517.59,-214.8 390.41,-214.8 390.41,-178.8 517.59,-178.8 517.59,-214.8"/>
<text text-anchor="middle" x="454" y="-192.6" font-family="Times,serif" font-size="14.00">RestoreComponent </text>
</g>
<!-- WalletModule&#45;&gt;RestoreComponent  -->
<g id="edge12" class="edge">
<title>WalletModule&#45;&gt;RestoreComponent </title>
<path fill="none" stroke="black" stroke-dasharray="5,2" d="M544.53,-143.8C520.05,-143.8 495.49,-143.8 495.49,-143.8 495.49,-143.8 495.49,-168.56 495.49,-168.56"/>
<polygon fill="black" stroke="black" points="491.99,-168.56 495.49,-178.56 498.99,-168.56 491.99,-168.56"/>
</g>
<!-- TransactionsComponent  -->
<g id="node14" class="node">
<title>TransactionsComponent </title>
<polygon fill="#fb8072" stroke="black" points="372.36,-214.8 215.64,-214.8 215.64,-178.8 372.36,-178.8 372.36,-214.8"/>
<text text-anchor="middle" x="294" y="-192.6" font-family="Times,serif" font-size="14.00">TransactionsComponent </text>
</g>
<!-- WalletModule&#45;&gt;TransactionsComponent  -->
<g id="edge13" class="edge">
<title>WalletModule&#45;&gt;TransactionsComponent </title>
<path fill="none" stroke="black" stroke-dasharray="5,2" d="M544.43,-137.8C473.93,-137.8 351.57,-137.8 351.57,-137.8 351.57,-137.8 351.57,-168.78 351.57,-168.78"/>
<polygon fill="black" stroke="black" points="348.07,-168.78 351.57,-178.78 355.07,-168.78 348.07,-168.78"/>
</g>
<!-- ModalModule -->
<g id="node8" class="node">
<title>ModalModule</title>
<polygon fill="#8dd3c7" stroke="black" points="1085.1,-84.8 1082.1,-88.8 1061.1,-88.8 1058.1,-84.8 988.9,-84.8 988.9,-48.8 1085.1,-48.8 1085.1,-84.8"/>
<text text-anchor="middle" x="1037" y="-62.6" font-family="Times,serif" font-size="14.00">ModalModule</text>
</g>
<!-- ModalModule&#45;&gt;WalletModule -->
<g id="edge7" class="edge">
<title>ModalModule&#45;&gt;WalletModule</title>
<path fill="none" stroke="black" d="M1037,-84.91C1037,-104.14 1037,-131.8 1037,-131.8 1037,-131.8 651.79,-131.8 651.79,-131.8"/>
<polygon fill="black" stroke="black" points="651.79,-128.3 641.79,-131.8 651.79,-135.3 651.79,-128.3"/>
</g>
<!-- TranslateModule -->
<g id="node9" class="node">
<title>TranslateModule</title>
<polygon fill="#8dd3c7" stroke="black" points="970.63,-84.8 967.63,-88.8 946.63,-88.8 943.63,-84.8 859.37,-84.8 859.37,-48.8 970.63,-48.8 970.63,-84.8"/>
<text text-anchor="middle" x="915" y="-62.6" font-family="Times,serif" font-size="14.00">TranslateModule</text>
</g>
<!-- TranslateModule&#45;&gt;WalletModule -->
<g id="edge8" class="edge">
<title>TranslateModule&#45;&gt;WalletModule</title>
<path fill="none" stroke="black" d="M882.83,-84.82C882.83,-102.17 882.83,-125.8 882.83,-125.8 882.83,-125.8 651.51,-125.8 651.51,-125.8"/>
<polygon fill="black" stroke="black" points="651.51,-122.3 641.51,-125.8 651.51,-129.3 651.51,-122.3"/>
</g>
</g>
</svg>
