<?xml version="1.0" encoding="UTF-8" standalone="no"?>
<!DOCTYPE svg PUBLIC "-//W3C//DTD SVG 1.1//EN"
 "http://www.w3.org/Graphics/SVG/1.1/DTD/svg11.dtd">
<!-- Generated by graphviz version 2.47.3 (20210619.1520)
 -->
<!-- Title: dependencies Pages: 1 -->
<svg width="316pt" height="239pt"
 viewBox="0.00 0.00 316.00 238.80" xmlns="http://www.w3.org/2000/svg" xmlns:xlink="http://www.w3.org/1999/xlink">
<g id="graph0" class="graph" transform="scale(1 1) rotate(0) translate(4 234.8)">
<title>dependencies</title>
<polygon fill="white" stroke="transparent" points="-4,4 -4,-234.8 312,-234.8 312,4 -4,4"/>
<text text-anchor="middle" x="154" y="-8.2" font-family="sans-serif" font-size="14.00">dependencies</text>
<g id="clust1" class="cluster">
<title>cluster_BlockchainModule</title>
<polygon fill="none" stroke="black" stroke-dasharray="1,5" points="8,-32.8 8,-222.8 300,-222.8 300,-32.8 8,-32.8"/>
</g>
<g id="clust4" class="cluster">
<title>cluster_BlockchainModule_imports</title>
<polygon fill="none" stroke="black" points="186,-105.8 186,-157.8 292,-157.8 292,-105.8 186,-105.8"/>
</g>
<g id="clust2" class="cluster">
<title>cluster_BlockchainModule_declarations</title>
<polygon fill="none" stroke="black" points="16,-105.8 16,-157.8 178,-157.8 178,-105.8 16,-105.8"/>
</g>
<g id="clust3" class="cluster">
<title>cluster_BlockchainModule_BlockchainComponent_providers</title>
<polygon fill="none" stroke="black" points="28,-40.8 28,-92.8 166,-92.8 166,-40.8 28,-40.8"/>
</g>
<!-- BlockchainComponent -->
<g id="node1" class="node">
<title>BlockchainComponent</title>
<polygon fill="#ffffb3" stroke="black" points="169.59,-149.8 24.41,-149.8 24.41,-113.8 169.59,-113.8 169.59,-149.8"/>
<text text-anchor="middle" x="97" y="-127.6" font-family="Times,serif" font-size="14.00">BlockchainComponent</text>
</g>
<!-- BlockchainModule -->
<g id="node2" class="node">
<title>BlockchainModule</title>
<polygon fill="#8dd3c7" stroke="black" points="224.81,-214.8 221.81,-218.8 200.81,-218.8 197.81,-214.8 101.19,-214.8 101.19,-178.8 224.81,-178.8 224.81,-214.8"/>
<text text-anchor="middle" x="163" y="-192.6" font-family="Times,serif" font-size="14.00">BlockchainModule</text>
</g>
<!-- BlockchainComponent&#45;&gt;BlockchainModule -->
<g id="edge1" class="edge">
<title>BlockchainComponent&#45;&gt;BlockchainModule</title>
<path fill="none" stroke="black" d="M135.45,-149.91C135.45,-149.91 135.45,-168.79 135.45,-168.79"/>
<polygon fill="black" stroke="black" points="131.95,-168.79 135.45,-178.79 138.95,-168.79 131.95,-168.79"/>
</g>
<!-- ChartService -->
<g id="node3" class="node">
<title>ChartService</title>
<ellipse fill="#fdb462" stroke="black" cx="97" cy="-66.8" rx="61.39" ry="18"/>
<text text-anchor="middle" x="97" y="-62.6" font-family="Times,serif" font-size="14.00">ChartService</text>
</g>
<!-- ChartService&#45;&gt;BlockchainComponent -->
<g id="edge2" class="edge">
<title>ChartService&#45;&gt;BlockchainComponent</title>
<path fill="none" stroke="black" d="M97,-84.91C97,-84.91 97,-103.79 97,-103.79"/>
<polygon fill="black" stroke="black" points="93.5,-103.79 97,-113.79 100.5,-103.79 93.5,-103.79"/>
</g>
<!-- ChartModule -->
<g id="node4" class="node">
<title>ChartModule</title>
<polygon fill="#8dd3c7" stroke="black" points="284.15,-149.8 281.15,-153.8 260.15,-153.8 257.15,-149.8 193.85,-149.8 193.85,-113.8 284.15,-113.8 284.15,-149.8"/>
<text text-anchor="middle" x="239" y="-127.6" font-family="Times,serif" font-size="14.00">ChartModule</text>
</g>
<!-- ChartModule&#45;&gt;BlockchainModule -->
<g id="edge3" class="edge">
<title>ChartModule&#45;&gt;BlockchainModule</title>
<path fill="none" stroke="black" d="M209.16,-149.91C209.16,-149.91 209.16,-168.79 209.16,-168.79"/>
<polygon fill="black" stroke="black" points="205.66,-168.79 209.16,-178.79 212.66,-168.79 205.66,-168.79"/>
</g>
</g>
</svg>
