<?xml version="1.0" encoding="UTF-8" standalone="no"?>
<!DOCTYPE svg PUBLIC "-//W3C//DTD SVG 1.1//EN"
 "http://www.w3.org/Graphics/SVG/1.1/DTD/svg11.dtd">
<!-- Generated by graphviz version 2.47.3 (20210619.1520)
 -->
<!-- Title: dependencies Pages: 1 -->
<svg width="4432pt" height="337pt"
 viewBox="0.00 0.00 4432.00 336.80" xmlns="http://www.w3.org/2000/svg" xmlns:xlink="http://www.w3.org/1999/xlink">
<g id="graph0" class="graph" transform="scale(1 1) rotate(0) translate(4 332.8)">
<title>dependencies</title>
<polygon fill="white" stroke="transparent" points="-4,4 -4,-332.8 4428,-332.8 4428,4 -4,4"/>
<text text-anchor="middle" x="2212" y="-8.2" font-family="sans-serif" font-size="14.00">dependencies</text>
<g id="clust1" class="cluster">
<title>cluster_AppModule</title>
<polygon fill="none" stroke="black" stroke-dasharray="1,5" points="556,-108.8 556,-320.8 1292,-320.8 1292,-108.8 556,-108.8"/>
</g>
<g id="clust2" class="cluster">
<title>cluster_AppModule_declarations</title>
<polygon fill="none" stroke="black" points="1162,-116.8 1162,-168.8 1284,-168.8 1284,-116.8 1162,-116.8"/>
</g>
<g id="clust4" class="cluster">
<title>cluster_AppModule_imports</title>
<polygon fill="none" stroke="black" points="564,-116.8 564,-168.8 1154,-168.8 1154,-116.8 564,-116.8"/>
</g>
<g id="clust6" class="cluster">
<title>cluster_AppModule_bootstrap</title>
<polygon fill="none" stroke="black" points="864,-260.8 864,-312.8 988,-312.8 988,-260.8 864,-260.8"/>
</g>
<g id="clust8" class="cluster">
<title>cluster_AppRoutingModule</title>
<polygon fill="none" stroke="black" stroke-dasharray="1,5" points="492,-32.8 492,-100.8 1467,-100.8 1467,-32.8 492,-32.8"/>
</g>
<g id="clust10" class="cluster">
<title>cluster_AppRoutingModule_imports</title>
<polygon fill="none" stroke="black" points="500,-40.8 500,-92.8 1459,-92.8 1459,-40.8 500,-40.8"/>
</g>
<g id="clust14" class="cluster">
<title>cluster_AuthModule</title>
<polygon fill="none" stroke="black" stroke-dasharray="1,5" points="1475,-32.8 1475,-100.8 1621,-100.8 1621,-32.8 1475,-32.8"/>
</g>
<g id="clust15" class="cluster">
<title>cluster_AuthModule_declarations</title>
<polygon fill="none" stroke="black" points="1483,-40.8 1483,-92.8 1613,-92.8 1613,-40.8 1483,-40.8"/>
</g>
<g id="clust21" class="cluster">
<title>cluster_BlockchainModule</title>
<polygon fill="none" stroke="black" stroke-dasharray="1,5" points="1629,-32.8 1629,-244.8 1921,-244.8 1921,-32.8 1629,-32.8"/>
</g>
<g id="clust22" class="cluster">
<title>cluster_BlockchainModule_declarations</title>
<polygon fill="none" stroke="black" points="1637,-116.8 1637,-168.8 1799,-168.8 1799,-116.8 1637,-116.8"/>
</g>
<g id="clust23" class="cluster">
<title>cluster_BlockchainModule_BlockchainComponent_providers</title>
<polygon fill="none" stroke="black" points="1775,-40.8 1775,-92.8 1913,-92.8 1913,-40.8 1775,-40.8"/>
</g>
<g id="clust24" class="cluster">
<title>cluster_BlockchainModule_imports</title>
<polygon fill="none" stroke="black" points="1807,-116.8 1807,-168.8 1913,-168.8 1913,-116.8 1807,-116.8"/>
</g>
<g id="clust34" class="cluster">
<title>cluster_ChartModule</title>
<polygon fill="none" stroke="black" stroke-dasharray="1,5" points="1929,-108.8 1929,-176.8 2187,-176.8 2187,-108.8 1929,-108.8"/>
</g>
<g id="clust35" class="cluster">
<title>cluster_ChartModule_declarations</title>
<polygon fill="none" stroke="black" points="2063,-116.8 2063,-168.8 2179,-168.8 2179,-116.8 2063,-116.8"/>
</g>
<g id="clust38" class="cluster">
<title>cluster_ChartModule_exports</title>
<polygon fill="none" stroke="black" points="1937,-116.8 1937,-168.8 2055,-168.8 2055,-116.8 1937,-116.8"/>
</g>
<g id="clust41" class="cluster">
<title>cluster_ConsoleModule</title>
<polygon fill="none" stroke="black" stroke-dasharray="1,5" points="1300,-184.8 1300,-252.8 1614,-252.8 1614,-184.8 1300,-184.8"/>
</g>
<g id="clust42" class="cluster">
<title>cluster_ConsoleModule_declarations</title>
<polygon fill="none" stroke="black" points="1462,-192.8 1462,-244.8 1606,-244.8 1606,-192.8 1462,-192.8"/>
</g>
<g id="clust45" class="cluster">
<title>cluster_ConsoleModule_exports</title>
<polygon fill="none" stroke="black" points="1308,-192.8 1308,-244.8 1454,-244.8 1454,-192.8 1308,-192.8"/>
</g>
<g id="clust54" class="cluster">
<title>cluster_LogsModule</title>
<polygon fill="none" stroke="black" stroke-dasharray="1,5" points="2195,-32.8 2195,-252.8 2339,-252.8 2339,-32.8 2195,-32.8"/>
</g>
<g id="clust55" class="cluster">
<title>cluster_LogsModule_declarations</title>
<polygon fill="none" stroke="black" points="2204,-40.8 2204,-92.8 2330,-92.8 2330,-40.8 2204,-40.8"/>
</g>
<g id="clust58" class="cluster">
<title>cluster_LogsModule_exports</title>
<polygon fill="none" stroke="black" points="2203,-192.8 2203,-244.8 2331,-244.8 2331,-192.8 2203,-192.8"/>
</g>
<g id="clust61" class="cluster">
<title>cluster_PipesModule</title>
<polygon fill="none" stroke="black" stroke-dasharray="1,5" points="3081,-32.8 3081,-252.8 3976,-252.8 3976,-32.8 3081,-32.8"/>
</g>
<g id="clust62" class="cluster">
<title>cluster_PipesModule_declarations</title>
<polygon fill="none" stroke="black" points="3089,-40.8 3089,-92.8 3944,-92.8 3944,-40.8 3089,-40.8"/>
</g>
<g id="clust71" class="cluster">
<title>cluster_PipesModule_exports</title>
<polygon fill="none" stroke="black" points="3089,-192.8 3089,-244.8 3968,-244.8 3968,-192.8 3089,-192.8"/>
</g>
<g id="clust74" class="cluster">
<title>cluster_PostModule</title>
<polygon fill="none" stroke="black" stroke-dasharray="1,5" points="3984,-32.8 3984,-168.8 4122,-168.8 4122,-32.8 3984,-32.8"/>
</g>
<g id="clust75" class="cluster">
<title>cluster_PostModule_declarations</title>
<polygon fill="none" stroke="black" points="3992,-40.8 3992,-92.8 4114,-92.8 4114,-40.8 3992,-40.8"/>
</g>
<g id="clust87" class="cluster">
<title>cluster_RootModule</title>
<polygon fill="none" stroke="black" stroke-dasharray="1,5" points="408,-108.8 408,-244.8 548,-244.8 548,-108.8 408,-108.8"/>
</g>
<g id="clust88" class="cluster">
<title>cluster_RootModule_declarations</title>
<polygon fill="none" stroke="black" points="416,-116.8 416,-168.8 540,-168.8 540,-116.8 416,-116.8"/>
</g>
<g id="clust100" class="cluster">
<title>cluster_SettingsModule</title>
<polygon fill="none" stroke="black" stroke-dasharray="1,5" points="2347,-108.8 2347,-244.8 2505,-244.8 2505,-108.8 2347,-108.8"/>
</g>
<g id="clust101" class="cluster">
<title>cluster_SettingsModule_declarations</title>
<polygon fill="none" stroke="black" points="2355,-116.8 2355,-168.8 2497,-168.8 2497,-116.8 2355,-116.8"/>
</g>
<g id="clust113" class="cluster">
<title>cluster_StatusModule</title>
<polygon fill="none" stroke="black" stroke-dasharray="1,5" points="8,-32.8 8,-100.8 484,-100.8 484,-32.8 8,-32.8"/>
</g>
<g id="clust114" class="cluster">
<title>cluster_StatusModule_declarations</title>
<polygon fill="none" stroke="black" points="160,-40.8 160,-92.8 476,-92.8 476,-40.8 160,-40.8"/>
</g>
<g id="clust118" class="cluster">
<title>cluster_StatusModule_exports</title>
<polygon fill="none" stroke="black" points="16,-40.8 16,-92.8 152,-92.8 152,-40.8 16,-40.8"/>
</g>
<g id="clust121" class="cluster">
<title>cluster_UserModule</title>
<polygon fill="none" stroke="black" stroke-dasharray="1,5" points="4130,-32.8 4130,-168.8 4270,-168.8 4270,-32.8 4130,-32.8"/>
</g>
<g id="clust122" class="cluster">
<title>cluster_UserModule_declarations</title>
<polygon fill="none" stroke="black" points="4138,-40.8 4138,-92.8 4262,-92.8 4262,-40.8 4138,-40.8"/>
</g>
<g id="clust134" class="cluster">
<title>cluster_VpnModule</title>
<polygon fill="none" stroke="black" stroke-dasharray="1,5" points="4278,-32.8 4278,-168.8 4416,-168.8 4416,-32.8 4278,-32.8"/>
</g>
<g id="clust135" class="cluster">
<title>cluster_VpnModule_declarations</title>
<polygon fill="none" stroke="black" points="4286,-40.8 4286,-92.8 4408,-92.8 4408,-40.8 4286,-40.8"/>
</g>
<g id="clust147" class="cluster">
<title>cluster_WalletModule</title>
<polygon fill="none" stroke="black" stroke-dasharray="1,5" points="2513,-108.8 2513,-244.8 3073,-244.8 3073,-108.8 2513,-108.8"/>
</g>
<g id="clust148" class="cluster">
<title>cluster_WalletModule_declarations</title>
<polygon fill="none" stroke="black" points="2521,-116.8 2521,-168.8 3065,-168.8 3065,-116.8 2521,-116.8"/>
</g>
<!-- AppComponent -->
<g id="node1" class="node">
<title>AppComponent</title>
<polygon fill="#ffffb3" stroke="black" points="1275.94,-160.8 1170.06,-160.8 1170.06,-124.8 1275.94,-124.8 1275.94,-160.8"/>
<text text-anchor="middle" x="1223" y="-138.6" font-family="Times,serif" font-size="14.00">AppComponent</text>
</g>
<!-- AppModule -->
<g id="node2" class="node">
<title>AppModule</title>
<polygon fill="#8dd3c7" stroke="black" points="967.66,-236.8 964.66,-240.8 943.66,-240.8 940.66,-236.8 884.34,-236.8 884.34,-200.8 967.66,-200.8 967.66,-236.8"/>
<text text-anchor="middle" x="926" y="-214.6" font-family="Times,serif" font-size="14.00">AppModule</text>
</g>
<!-- AppComponent&#45;&gt;AppModule -->
<g id="edge1" class="edge">
<title>AppComponent&#45;&gt;AppModule</title>
<path fill="none" stroke="black" d="M1223,-160.83C1223,-185.78 1223,-227.8 1223,-227.8 1223,-227.8 977.92,-227.8 977.92,-227.8"/>
<polygon fill="black" stroke="black" points="977.92,-224.3 967.92,-227.8 977.92,-231.3 977.92,-224.3"/>
</g>
<!-- AppComponent  -->
<g id="node8" class="node">
<title>AppComponent </title>
<polygon fill="#80b1d3" stroke="black" points="980.44,-304.8 871.56,-304.8 871.56,-268.8 980.44,-268.8 980.44,-304.8"/>
<text text-anchor="middle" x="926" y="-282.6" font-family="Times,serif" font-size="14.00">AppComponent </text>
</g>
<!-- AppModule&#45;&gt;AppComponent  -->
<g id="edge7" class="edge">
<title>AppModule&#45;&gt;AppComponent </title>
<path fill="none" stroke="black" stroke-dasharray="1,5" d="M926,-237.02C926,-237.02 926,-258.53 926,-258.53"/>
<polygon fill="black" stroke="black" points="922.5,-258.53 926,-268.53 929.5,-258.53 922.5,-258.53"/>
</g>
<!-- AppRoutingModule -->
<g id="node3" class="node">
<title>AppRoutingModule</title>
<polygon fill="#8dd3c7" stroke="black" points="812.27,-160.8 809.27,-164.8 788.27,-164.8 785.27,-160.8 683.73,-160.8 683.73,-124.8 812.27,-124.8 812.27,-160.8"/>
<text text-anchor="middle" x="748" y="-138.6" font-family="Times,serif" font-size="14.00">AppRoutingModule</text>
</g>
<!-- AppRoutingModule&#45;&gt;AppModule -->
<g id="edge2" class="edge">
<title>AppRoutingModule&#45;&gt;AppModule</title>
<path fill="none" stroke="black" d="M748,-160.83C748,-181.57 748,-212.8 748,-212.8 748,-212.8 874.27,-212.8 874.27,-212.8"/>
<polygon fill="black" stroke="black" points="874.27,-216.3 884.27,-212.8 874.27,-209.3 874.27,-216.3"/>
</g>
<!-- AuthModule -->
<g id="node4" class="node">
<title>AuthModule</title>
<polygon fill="#8dd3c7" stroke="black" points="917.55,-160.8 914.55,-164.8 893.55,-164.8 890.55,-160.8 830.45,-160.8 830.45,-124.8 917.55,-124.8 917.55,-160.8"/>
<text text-anchor="middle" x="874" y="-138.6" font-family="Times,serif" font-size="14.00">AuthModule</text>
</g>
<!-- AuthModule&#45;&gt;AppModule -->
<g id="edge3" class="edge">
<title>AuthModule&#45;&gt;AppModule</title>
<path fill="none" stroke="black" d="M900.97,-160.81C900.97,-160.81 900.97,-190.65 900.97,-190.65"/>
<polygon fill="black" stroke="black" points="897.47,-190.65 900.97,-200.65 904.47,-190.65 897.47,-190.65"/>
</g>
<!-- ConsoleModule -->
<g id="node5" class="node">
<title>ConsoleModule</title>
<polygon fill="#8dd3c7" stroke="black" points="1145.94,-160.8 1142.94,-164.8 1121.94,-164.8 1118.94,-160.8 1040.06,-160.8 1040.06,-124.8 1145.94,-124.8 1145.94,-160.8"/>
<text text-anchor="middle" x="1093" y="-138.6" font-family="Times,serif" font-size="14.00">ConsoleModule</text>
</g>
<!-- ConsoleModule&#45;&gt;AppModule -->
<g id="edge4" class="edge">
<title>ConsoleModule&#45;&gt;AppModule</title>
<path fill="none" stroke="black" d="M1103.54,-160.81C1103.54,-183.29 1103.54,-218.8 1103.54,-218.8 1103.54,-218.8 978.08,-218.8 978.08,-218.8"/>
<polygon fill="black" stroke="black" points="978.08,-215.3 968.08,-218.8 978.08,-222.3 978.08,-215.3"/>
</g>
<!-- ConsoleComponent  -->
<g id="node23" class="node">
<title>ConsoleComponent </title>
<polygon fill="#fb8072" stroke="black" points="1446.22,-236.8 1315.78,-236.8 1315.78,-200.8 1446.22,-200.8 1446.22,-236.8"/>
<text text-anchor="middle" x="1381" y="-214.6" font-family="Times,serif" font-size="14.00">ConsoleComponent </text>
</g>
<!-- ConsoleModule&#45;&gt;ConsoleComponent  -->
<g id="edge23" class="edge">
<title>ConsoleModule&#45;&gt;ConsoleComponent </title>
<path fill="none" stroke="black" stroke-dasharray="5,2" d="M1124.63,-161.11C1124.63,-180.95 1124.63,-209.8 1124.63,-209.8 1124.63,-209.8 1305.64,-209.8 1305.64,-209.8"/>
<polygon fill="black" stroke="black" points="1305.64,-213.3 1315.64,-209.8 1305.64,-206.3 1305.64,-213.3"/>
</g>
<!-- RootModule -->
<g id="node45" class="node">
<title>RootModule</title>
<polygon fill="#8dd3c7" stroke="black" points="530.28,-236.8 527.28,-240.8 506.28,-240.8 503.28,-236.8 443.72,-236.8 443.72,-200.8 530.28,-200.8 530.28,-236.8"/>
<text text-anchor="middle" x="487" y="-214.6" font-family="Times,serif" font-size="14.00">RootModule</text>
</g>
<!-- ConsoleModule&#45;&gt;RootModule -->
<g id="edge42" class="edge">
<title>ConsoleModule&#45;&gt;RootModule</title>
<path fill="none" stroke="black" d="M1061.37,-161.01C1061.37,-166.35 1061.37,-170.8 1061.37,-170.8 1061.37,-170.8 501.46,-170.8 501.46,-170.8 501.46,-170.8 501.46,-190.65 501.46,-190.65"/>
<polygon fill="black" stroke="black" points="497.96,-190.65 501.46,-200.65 504.96,-190.65 497.96,-190.65"/>
</g>
<!-- DataModule -->
<g id="node6" class="node">
<title>DataModule</title>
<polygon fill="#8dd3c7" stroke="black" points="1021.98,-160.8 1018.98,-164.8 997.98,-164.8 994.98,-160.8 936.02,-160.8 936.02,-124.8 1021.98,-124.8 1021.98,-160.8"/>
<text text-anchor="middle" x="979" y="-138.6" font-family="Times,serif" font-size="14.00">DataModule</text>
</g>
<!-- DataModule&#45;&gt;AppModule -->
<g id="edge5" class="edge">
<title>DataModule&#45;&gt;AppModule</title>
<path fill="none" stroke="black" d="M951.92,-160.81C951.92,-160.81 951.92,-190.65 951.92,-190.65"/>
<polygon fill="black" stroke="black" points="948.42,-190.65 951.92,-200.65 955.42,-190.65 948.42,-190.65"/>
</g>
<!-- StatusModule -->
<g id="node7" class="node">
<title>StatusModule</title>
<polygon fill="#8dd3c7" stroke="black" points="665.77,-160.8 662.77,-164.8 641.77,-164.8 638.77,-160.8 572.23,-160.8 572.23,-124.8 665.77,-124.8 665.77,-160.8"/>
<text text-anchor="middle" x="619" y="-138.6" font-family="Times,serif" font-size="14.00">StatusModule</text>
</g>
<!-- StatusModule&#45;&gt;AppModule -->
<g id="edge6" class="edge">
<title>StatusModule&#45;&gt;AppModule</title>
<path fill="none" stroke="black" d="M619,-161C619,-185.16 619,-224.8 619,-224.8 619,-224.8 874.28,-224.8 874.28,-224.8"/>
<polygon fill="black" stroke="black" points="874.28,-228.3 884.28,-224.8 874.28,-221.3 874.28,-228.3"/>
</g>
<!-- StatusComponent  -->
<g id="node50" class="node">
<title>StatusComponent </title>
<polygon fill="#fb8072" stroke="black" points="143.56,-84.8 24.44,-84.8 24.44,-48.8 143.56,-48.8 143.56,-84.8"/>
<text text-anchor="middle" x="84" y="-62.6" font-family="Times,serif" font-size="14.00">StatusComponent </text>
</g>
<!-- StatusModule&#45;&gt;StatusComponent  -->
<g id="edge47" class="edge">
<title>StatusModule&#45;&gt;StatusComponent </title>
<path fill="none" stroke="black" stroke-dasharray="5,2" d="M593.56,-124.68C593.56,-121.83 593.56,-119.8 593.56,-119.8 593.56,-119.8 84,-119.8 84,-119.8 84,-119.8 84,-95.04 84,-95.04"/>
<polygon fill="black" stroke="black" points="87.5,-95.04 84,-85.04 80.5,-95.04 87.5,-95.04"/>
</g>
<!-- BlockchainRoutingModule -->
<g id="node9" class="node">
<title>BlockchainRoutingModule</title>
<polygon fill="#8dd3c7" stroke="black" points="1141.43,-84.8 1138.43,-88.8 1117.43,-88.8 1114.43,-84.8 972.57,-84.8 972.57,-48.8 1141.43,-48.8 1141.43,-84.8"/>
<text text-anchor="middle" x="1057" y="-62.6" font-family="Times,serif" font-size="14.00">BlockchainRoutingModule</text>
</g>
<!-- BlockchainRoutingModule&#45;&gt;AppRoutingModule -->
<g id="edge8" class="edge">
<title>BlockchainRoutingModule&#45;&gt;AppRoutingModule</title>
<path fill="none" stroke="black" d="M997.39,-84.92C997.39,-87.77 997.39,-89.8 997.39,-89.8 997.39,-89.8 733.35,-89.8 733.35,-89.8 733.35,-89.8 733.35,-114.56 733.35,-114.56"/>
<polygon fill="black" stroke="black" points="729.85,-114.56 733.35,-124.56 736.85,-114.56 729.85,-114.56"/>
</g>
<!-- PostRoutingModule -->
<g id="node10" class="node">
<title>PostRoutingModule</title>
<polygon fill="#8dd3c7" stroke="black" points="954.29,-84.8 951.29,-88.8 930.29,-88.8 927.29,-84.8 825.71,-84.8 825.71,-48.8 954.29,-48.8 954.29,-84.8"/>
<text text-anchor="middle" x="890" y="-62.6" font-family="Times,serif" font-size="14.00">PostRoutingModule</text>
</g>
<!-- PostRoutingModule&#45;&gt;AppRoutingModule -->
<g id="edge9" class="edge">
<title>PostRoutingModule&#45;&gt;AppRoutingModule</title>
<path fill="none" stroke="black" d="M825.55,-66.8C821.49,-66.8 819,-66.8 819,-66.8 819,-66.8 819,-142.8 819,-142.8 819,-142.8 818.34,-142.8 818.34,-142.8"/>
<polygon fill="black" stroke="black" points="822.45,-139.3 812.45,-142.8 822.45,-146.3 822.45,-139.3"/>
</g>
<!-- RootRoutingModule -->
<g id="node11" class="node">
<title>RootRoutingModule</title>
<polygon fill="#8dd3c7" stroke="black" points="807.89,-84.8 804.89,-88.8 783.89,-88.8 780.89,-84.8 676.11,-84.8 676.11,-48.8 807.89,-48.8 807.89,-84.8"/>
<text text-anchor="middle" x="742" y="-62.6" font-family="Times,serif" font-size="14.00">RootRoutingModule</text>
</g>
<!-- RootRoutingModule&#45;&gt;AppRoutingModule -->
<g id="edge10" class="edge">
<title>RootRoutingModule&#45;&gt;AppRoutingModule</title>
<path fill="none" stroke="black" d="M708.48,-84.81C708.48,-84.81 708.48,-114.65 708.48,-114.65"/>
<polygon fill="black" stroke="black" points="704.98,-114.65 708.48,-124.65 711.98,-114.65 704.98,-114.65"/>
</g>
<!-- SettingsRoutingModule -->
<g id="node12" class="node">
<title>SettingsRoutingModule</title>
<polygon fill="#8dd3c7" stroke="black" points="657.78,-84.8 654.78,-88.8 633.78,-88.8 630.78,-84.8 508.22,-84.8 508.22,-48.8 657.78,-48.8 657.78,-84.8"/>
<text text-anchor="middle" x="583" y="-62.6" font-family="Times,serif" font-size="14.00">SettingsRoutingModule</text>
</g>
<!-- SettingsRoutingModule&#45;&gt;AppRoutingModule -->
<g id="edge11" class="edge">
<title>SettingsRoutingModule&#45;&gt;AppRoutingModule</title>
<path fill="none" stroke="black" d="M657.99,-66.8C665.81,-66.8 670.97,-66.8 670.97,-66.8 670.97,-66.8 670.97,-142.8 670.97,-142.8 670.97,-142.8 673.69,-142.8 673.69,-142.8"/>
<polygon fill="black" stroke="black" points="673.69,-146.3 683.69,-142.8 673.69,-139.3 673.69,-146.3"/>
</g>
<!-- UserRoutingModule -->
<g id="node13" class="node">
<title>UserRoutingModule</title>
<polygon fill="#8dd3c7" stroke="black" points="1450.59,-84.8 1447.59,-88.8 1426.59,-88.8 1423.59,-84.8 1319.41,-84.8 1319.41,-48.8 1450.59,-48.8 1450.59,-84.8"/>
<text text-anchor="middle" x="1385" y="-62.6" font-family="Times,serif" font-size="14.00">UserRoutingModule</text>
</g>
<!-- UserRoutingModule&#45;&gt;AppRoutingModule -->
<g id="edge12" class="edge">
<title>UserRoutingModule&#45;&gt;AppRoutingModule</title>
<path fill="none" stroke="black" d="M1382.91,-84.84C1382.91,-92.55 1382.91,-99.8 1382.91,-99.8 1382.91,-99.8 783.08,-99.8 783.08,-99.8 783.08,-99.8 783.08,-114.31 783.08,-114.31"/>
<polygon fill="black" stroke="black" points="779.58,-114.31 783.08,-124.31 786.58,-114.31 779.58,-114.31"/>
</g>
<!-- WalletRoutingModule -->
<g id="node14" class="node">
<title>WalletRoutingModule</title>
<polygon fill="#8dd3c7" stroke="black" points="1300.98,-84.8 1297.98,-88.8 1276.98,-88.8 1273.98,-84.8 1159.02,-84.8 1159.02,-48.8 1300.98,-48.8 1300.98,-84.8"/>
<text text-anchor="middle" x="1230" y="-62.6" font-family="Times,serif" font-size="14.00">WalletRoutingModule</text>
</g>
<!-- WalletRoutingModule&#45;&gt;AppRoutingModule -->
<g id="edge13" class="edge">
<title>WalletRoutingModule&#45;&gt;AppRoutingModule</title>
<path fill="none" stroke="black" d="M1164.64,-85.01C1164.64,-90.35 1164.64,-94.8 1164.64,-94.8 1164.64,-94.8 758.21,-94.8 758.21,-94.8 758.21,-94.8 758.21,-114.65 758.21,-114.65"/>
<polygon fill="black" stroke="black" points="754.71,-114.65 758.21,-124.65 761.71,-114.65 754.71,-114.65"/>
</g>
<!-- LoginComponent -->
<g id="node15" class="node">
<title>LoginComponent</title>
<polygon fill="#ffffb3" stroke="black" points="1605.28,-84.8 1490.72,-84.8 1490.72,-48.8 1605.28,-48.8 1605.28,-84.8"/>
<text text-anchor="middle" x="1548" y="-62.6" font-family="Times,serif" font-size="14.00">LoginComponent</text>
</g>
<!-- LoginComponent&#45;&gt;AuthModule -->
<g id="edge14" class="edge">
<title>LoginComponent&#45;&gt;AuthModule</title>
<path fill="none" stroke="black" d="M1544.11,-84.91C1544.11,-94.7 1544.11,-104.8 1544.11,-104.8 1544.11,-104.8 874,-104.8 874,-104.8 874,-104.8 874,-114.69 874,-114.69"/>
<polygon fill="black" stroke="black" points="870.5,-114.69 874,-124.69 877.5,-114.69 870.5,-114.69"/>
</g>
<!-- BlockchainComponent -->
<g id="node16" class="node">
<title>BlockchainComponent</title>
<polygon fill="#ffffb3" stroke="black" points="1790.59,-160.8 1645.41,-160.8 1645.41,-124.8 1790.59,-124.8 1790.59,-160.8"/>
<text text-anchor="middle" x="1718" y="-138.6" font-family="Times,serif" font-size="14.00">BlockchainComponent</text>
</g>
<!-- BlockchainModule -->
<g id="node17" class="node">
<title>BlockchainModule</title>
<polygon fill="#8dd3c7" stroke="black" points="1845.81,-236.8 1842.81,-240.8 1821.81,-240.8 1818.81,-236.8 1722.19,-236.8 1722.19,-200.8 1845.81,-200.8 1845.81,-236.8"/>
<text text-anchor="middle" x="1784" y="-214.6" font-family="Times,serif" font-size="14.00">BlockchainModule</text>
</g>
<!-- BlockchainComponent&#45;&gt;BlockchainModule -->
<g id="edge15" class="edge">
<title>BlockchainComponent&#45;&gt;BlockchainModule</title>
<path fill="none" stroke="black" d="M1756.45,-160.81C1756.45,-160.81 1756.45,-190.65 1756.45,-190.65"/>
<polygon fill="black" stroke="black" points="1752.95,-190.65 1756.45,-200.65 1759.95,-190.65 1752.95,-190.65"/>
</g>
<!-- ChartService -->
<g id="node18" class="node">
<title>ChartService</title>
<ellipse fill="#fdb462" stroke="black" cx="1844" cy="-66.8" rx="61.39" ry="18"/>
<text text-anchor="middle" x="1844" y="-62.6" font-family="Times,serif" font-size="14.00">ChartService</text>
</g>
<!-- ChartService&#45;&gt;BlockchainComponent -->
<g id="edge16" class="edge">
<title>ChartService&#45;&gt;BlockchainComponent</title>
<path fill="none" stroke="black" d="M1786.55,-73.28C1786.55,-73.28 1786.55,-114.71 1786.55,-114.71"/>
<polygon fill="black" stroke="black" points="1783.05,-114.71 1786.55,-124.71 1790.05,-114.71 1783.05,-114.71"/>
</g>
<!-- ChartModule -->
<g id="node19" class="node">
<title>ChartModule</title>
<polygon fill="#8dd3c7" stroke="black" points="1905.15,-160.8 1902.15,-164.8 1881.15,-164.8 1878.15,-160.8 1814.85,-160.8 1814.85,-124.8 1905.15,-124.8 1905.15,-160.8"/>
<text text-anchor="middle" x="1860" y="-138.6" font-family="Times,serif" font-size="14.00">ChartModule</text>
</g>
<!-- ChartService&#45;&gt;ChartModule -->
<g id="edge21" class="edge">
<title>ChartService&#45;&gt;ChartModule</title>
<path fill="none" stroke="black" d="M1860,-84.43C1860,-84.43 1860,-114.74 1860,-114.74"/>
<polygon fill="black" stroke="black" points="1856.5,-114.74 1860,-124.74 1863.5,-114.74 1856.5,-114.74"/>
</g>
<!-- ChartDirective -->
<g id="node20" class="node">
<title>ChartDirective</title>
<polygon fill="#ffffb3" stroke="black" points="2170.69,-160.8 2071.31,-160.8 2071.31,-124.8 2170.69,-124.8 2170.69,-160.8"/>
<text text-anchor="middle" x="2121" y="-138.6" font-family="Times,serif" font-size="14.00">ChartDirective</text>
</g>
<!-- ChartService&#45;&gt;ChartDirective -->
<g id="edge19" class="edge">
<title>ChartService&#45;&gt;ChartDirective</title>
<path fill="none" stroke="black" d="M1905.48,-66.8C1987.08,-66.8 2121,-66.8 2121,-66.8 2121,-66.8 2121,-114.79 2121,-114.79"/>
<polygon fill="black" stroke="black" points="2117.5,-114.79 2121,-124.79 2124.5,-114.79 2117.5,-114.79"/>
</g>
<!-- ChartModule&#45;&gt;BlockchainModule -->
<g id="edge17" class="edge">
<title>ChartModule&#45;&gt;BlockchainModule</title>
<path fill="none" stroke="black" d="M1830.16,-160.81C1830.16,-160.81 1830.16,-190.65 1830.16,-190.65"/>
<polygon fill="black" stroke="black" points="1826.66,-190.65 1830.16,-200.65 1833.66,-190.65 1826.66,-190.65"/>
</g>
<!-- ChartDirective  -->
<g id="node21" class="node">
<title>ChartDirective </title>
<polygon fill="#fb8072" stroke="black" points="2047.19,-160.8 1944.81,-160.8 1944.81,-124.8 2047.19,-124.8 2047.19,-160.8"/>
<text text-anchor="middle" x="1996" y="-138.6" font-family="Times,serif" font-size="14.00">ChartDirective </text>
</g>
<!-- ChartModule&#45;&gt;ChartDirective  -->
<g id="edge20" class="edge">
<title>ChartModule&#45;&gt;ChartDirective </title>
<path fill="none" stroke="black" stroke-dasharray="5,2" d="M1905.29,-142.8C1905.29,-142.8 1934.81,-142.8 1934.81,-142.8"/>
<polygon fill="black" stroke="black" points="1934.81,-146.3 1944.81,-142.8 1934.81,-139.3 1934.81,-146.3"/>
</g>
<!-- ChartDirective&#45;&gt;ChartModule -->
<g id="edge18" class="edge">
<title>ChartDirective&#45;&gt;ChartModule</title>
<path fill="none" stroke="black" d="M2121,-160.95C2121,-174.54 2121,-190.8 2121,-190.8 2121,-190.8 1875.49,-190.8 1875.49,-190.8 1875.49,-190.8 1875.49,-170.95 1875.49,-170.95"/>
<polygon fill="black" stroke="black" points="1878.99,-170.95 1875.49,-160.95 1871.99,-170.95 1878.99,-170.95"/>
</g>
<!-- ConsoleComponent -->
<g id="node22" class="node">
<title>ConsoleComponent</title>
<polygon fill="#ffffb3" stroke="black" points="1597.72,-236.8 1470.28,-236.8 1470.28,-200.8 1597.72,-200.8 1597.72,-236.8"/>
<text text-anchor="middle" x="1534" y="-214.6" font-family="Times,serif" font-size="14.00">ConsoleComponent</text>
</g>
<!-- ConsoleComponent&#45;&gt;ConsoleModule -->
<g id="edge22" class="edge">
<title>ConsoleComponent&#45;&gt;ConsoleModule</title>
<path fill="none" stroke="black" d="M1480.5,-200.69C1480.5,-190.9 1480.5,-180.8 1480.5,-180.8 1480.5,-180.8 1082.46,-180.8 1082.46,-180.8 1082.46,-180.8 1082.46,-170.91 1082.46,-170.91"/>
<polygon fill="black" stroke="black" points="1085.96,-170.91 1082.46,-160.91 1078.96,-170.91 1085.96,-170.91"/>
</g>
<!-- LogsComponent -->
<g id="node24" class="node">
<title>LogsComponent</title>
<polygon fill="#ffffb3" stroke="black" points="2321.83,-84.8 2212.17,-84.8 2212.17,-48.8 2321.83,-48.8 2321.83,-84.8"/>
<text text-anchor="middle" x="2267" y="-62.6" font-family="Times,serif" font-size="14.00">LogsComponent</text>
</g>
<!-- LogsModule -->
<g id="node25" class="node">
<title>LogsModule</title>
<polygon fill="#8dd3c7" stroke="black" points="2310.55,-160.8 2307.55,-164.8 2286.55,-164.8 2283.55,-160.8 2223.45,-160.8 2223.45,-124.8 2310.55,-124.8 2310.55,-160.8"/>
<text text-anchor="middle" x="2267" y="-138.6" font-family="Times,serif" font-size="14.00">LogsModule</text>
</g>
<!-- LogsComponent&#45;&gt;LogsModule -->
<g id="edge24" class="edge">
<title>LogsComponent&#45;&gt;LogsModule</title>
<path fill="none" stroke="black" d="M2267,-84.81C2267,-84.81 2267,-114.65 2267,-114.65"/>
<polygon fill="black" stroke="black" points="2263.5,-114.65 2267,-124.65 2270.5,-114.65 2263.5,-114.65"/>
</g>
<!-- LogsComponent  -->
<g id="node26" class="node">
<title>LogsComponent </title>
<polygon fill="#fb8072" stroke="black" points="2323.33,-236.8 2210.67,-236.8 2210.67,-200.8 2323.33,-200.8 2323.33,-236.8"/>
<text text-anchor="middle" x="2267" y="-214.6" font-family="Times,serif" font-size="14.00">LogsComponent </text>
</g>
<!-- LogsModule&#45;&gt;LogsComponent  -->
<g id="edge25" class="edge">
<title>LogsModule&#45;&gt;LogsComponent </title>
<path fill="none" stroke="black" stroke-dasharray="5,2" d="M2267,-160.81C2267,-160.81 2267,-190.65 2267,-190.65"/>
<polygon fill="black" stroke="black" points="2263.5,-190.65 2267,-200.65 2270.5,-190.65 2263.5,-190.65"/>
</g>
<!-- SettingsModule -->
<g id="node47" class="node">
<title>SettingsModule</title>
<polygon fill="#8dd3c7" stroke="black" points="2468.16,-236.8 2465.16,-240.8 2444.16,-240.8 2441.16,-236.8 2363.84,-236.8 2363.84,-200.8 2468.16,-200.8 2468.16,-236.8"/>
<text text-anchor="middle" x="2416" y="-214.6" font-family="Times,serif" font-size="14.00">SettingsModule</text>
</g>
<!-- LogsModule&#45;&gt;SettingsModule -->
<g id="edge44" class="edge">
<title>LogsModule&#45;&gt;SettingsModule</title>
<path fill="none" stroke="black" d="M2310.82,-142.8C2327.74,-142.8 2343.1,-142.8 2343.1,-142.8 2343.1,-142.8 2343.1,-218.8 2343.1,-218.8 2343.1,-218.8 2353.79,-218.8 2353.79,-218.8"/>
<polygon fill="black" stroke="black" points="2353.79,-222.3 2363.79,-218.8 2353.79,-215.3 2353.79,-222.3"/>
</g>
<!-- EffortPipe -->
<g id="node27" class="node">
<title>EffortPipe</title>
<polygon fill="#ffffb3" stroke="black" points="3714.31,-84.8 3639.69,-84.8 3639.69,-48.8 3714.31,-48.8 3714.31,-84.8"/>
<text text-anchor="middle" x="3677" y="-62.6" font-family="Times,serif" font-size="14.00">EffortPipe</text>
</g>
<!-- PipesModule -->
<g id="node34" class="node">
<title>PipesModule</title>
<polygon fill="#8dd3c7" stroke="black" points="3581.88,-160.8 3578.88,-164.8 3557.88,-164.8 3554.88,-160.8 3492.12,-160.8 3492.12,-124.8 3581.88,-124.8 3581.88,-160.8"/>
<text text-anchor="middle" x="3537" y="-138.6" font-family="Times,serif" font-size="14.00">PipesModule</text>
</g>
<!-- EffortPipe&#45;&gt;PipesModule -->
<g id="edge26" class="edge">
<title>EffortPipe&#45;&gt;PipesModule</title>
<path fill="none" stroke="black" d="M3650.93,-84.97C3650.93,-103.89 3650.93,-130.8 3650.93,-130.8 3650.93,-130.8 3592.03,-130.8 3592.03,-130.8"/>
<polygon fill="black" stroke="black" points="3592.03,-127.3 3582.03,-130.8 3592.03,-134.3 3592.03,-127.3"/>
</g>
<!-- EscapeHtmlPipe -->
<g id="node28" class="node">
<title>EscapeHtmlPipe</title>
<polygon fill="#ffffb3" stroke="black" points="3621.81,-84.8 3512.19,-84.8 3512.19,-48.8 3621.81,-48.8 3621.81,-84.8"/>
<text text-anchor="middle" x="3567" y="-62.6" font-family="Times,serif" font-size="14.00">EscapeHtmlPipe</text>
</g>
<!-- EscapeHtmlPipe&#45;&gt;PipesModule -->
<g id="edge27" class="edge">
<title>EscapeHtmlPipe&#45;&gt;PipesModule</title>
<path fill="none" stroke="black" d="M3547.14,-84.81C3547.14,-84.81 3547.14,-114.65 3547.14,-114.65"/>
<polygon fill="black" stroke="black" points="3543.64,-114.65 3547.14,-124.65 3550.64,-114.65 3543.64,-114.65"/>
</g>
<!-- HashRatePipe -->
<g id="node29" class="node">
<title>HashRatePipe</title>
<polygon fill="#ffffb3" stroke="black" points="3494.81,-84.8 3399.19,-84.8 3399.19,-48.8 3494.81,-48.8 3494.81,-84.8"/>
<text text-anchor="middle" x="3447" y="-62.6" font-family="Times,serif" font-size="14.00">HashRatePipe</text>
</g>
<!-- HashRatePipe&#45;&gt;PipesModule -->
<g id="edge28" class="edge">
<title>HashRatePipe&#45;&gt;PipesModule</title>
<path fill="none" stroke="black" d="M3494.67,-66.8C3499.97,-66.8 3503.5,-66.8 3503.5,-66.8 3503.5,-66.8 3503.5,-114.79 3503.5,-114.79"/>
<polygon fill="black" stroke="black" points="3500,-114.79 3503.5,-124.79 3507,-114.79 3500,-114.79"/>
</g>
<!-- MarkdownPipe -->
<g id="node30" class="node">
<title>MarkdownPipe</title>
<polygon fill="#ffffb3" stroke="black" points="3381.31,-84.8 3278.69,-84.8 3278.69,-48.8 3381.31,-48.8 3381.31,-84.8"/>
<text text-anchor="middle" x="3330" y="-62.6" font-family="Times,serif" font-size="14.00">MarkdownPipe</text>
</g>
<!-- MarkdownPipe&#45;&gt;PipesModule -->
<g id="edge29" class="edge">
<title>MarkdownPipe&#45;&gt;PipesModule</title>
<path fill="none" stroke="black" d="M3359.38,-84.97C3359.38,-103.89 3359.38,-130.8 3359.38,-130.8 3359.38,-130.8 3481.72,-130.8 3481.72,-130.8"/>
<polygon fill="black" stroke="black" points="3481.72,-134.3 3491.72,-130.8 3481.72,-127.3 3481.72,-134.3"/>
</g>
<!-- RemoveTrailingZerosPipe -->
<g id="node31" class="node">
<title>RemoveTrailingZerosPipe</title>
<polygon fill="#ffffb3" stroke="black" points="3261.02,-84.8 3096.98,-84.8 3096.98,-48.8 3261.02,-48.8 3261.02,-84.8"/>
<text text-anchor="middle" x="3179" y="-62.6" font-family="Times,serif" font-size="14.00">RemoveTrailingZerosPipe</text>
</g>
<!-- RemoveTrailingZerosPipe&#45;&gt;PipesModule -->
<g id="edge30" class="edge">
<title>RemoveTrailingZerosPipe&#45;&gt;PipesModule</title>
<path fill="none" stroke="black" d="M3240.93,-84.83C3240.93,-105.57 3240.93,-136.8 3240.93,-136.8 3240.93,-136.8 3482.03,-136.8 3482.03,-136.8"/>
<polygon fill="black" stroke="black" points="3482.03,-140.3 3492.03,-136.8 3482.03,-133.3 3482.03,-140.3"/>
</g>
<!-- ShruggiePipe -->
<g id="node32" class="node">
<title>ShruggiePipe</title>
<polygon fill="#ffffb3" stroke="black" points="3935.94,-84.8 3844.06,-84.8 3844.06,-48.8 3935.94,-48.8 3935.94,-84.8"/>
<text text-anchor="middle" x="3890" y="-62.6" font-family="Times,serif" font-size="14.00">ShruggiePipe</text>
</g>
<!-- ShruggiePipe&#45;&gt;PipesModule -->
<g id="edge31" class="edge">
<title>ShruggiePipe&#45;&gt;PipesModule</title>
<path fill="none" stroke="black" d="M3890,-84.81C3890,-107.29 3890,-142.8 3890,-142.8 3890,-142.8 3592.07,-142.8 3592.07,-142.8"/>
<polygon fill="black" stroke="black" points="3592.07,-139.3 3582.07,-142.8 3592.07,-146.3 3592.07,-139.3"/>
</g>
<!-- TimeAgoPipe -->
<g id="node33" class="node">
<title>TimeAgoPipe</title>
<polygon fill="#ffffb3" stroke="black" points="3826.04,-84.8 3731.96,-84.8 3731.96,-48.8 3826.04,-48.8 3826.04,-84.8"/>
<text text-anchor="middle" x="3779" y="-62.6" font-family="Times,serif" font-size="14.00">TimeAgoPipe</text>
</g>
<!-- TimeAgoPipe&#45;&gt;PipesModule -->
<g id="edge32" class="edge">
<title>TimeAgoPipe&#45;&gt;PipesModule</title>
<path fill="none" stroke="black" d="M3753.1,-84.83C3753.1,-105.57 3753.1,-136.8 3753.1,-136.8 3753.1,-136.8 3592.04,-136.8 3592.04,-136.8"/>
<polygon fill="black" stroke="black" points="3592.04,-133.3 3582.04,-136.8 3592.04,-140.3 3592.04,-133.3"/>
</g>
<!-- EffortPipe  -->
<g id="node35" class="node">
<title>EffortPipe </title>
<polygon fill="#fb8072" stroke="black" points="3545.81,-236.8 3468.19,-236.8 3468.19,-200.8 3545.81,-200.8 3545.81,-236.8"/>
<text text-anchor="middle" x="3507" y="-214.6" font-family="Times,serif" font-size="14.00">EffortPipe </text>
</g>
<!-- PipesModule&#45;&gt;EffortPipe  -->
<g id="edge33" class="edge">
<title>PipesModule&#45;&gt;EffortPipe </title>
<path fill="none" stroke="black" stroke-dasharray="5,2" d="M3518.98,-160.81C3518.98,-160.81 3518.98,-190.65 3518.98,-190.65"/>
<polygon fill="black" stroke="black" points="3515.48,-190.65 3518.98,-200.65 3522.48,-190.65 3515.48,-190.65"/>
</g>
<!-- EscapeHtmlPipe  -->
<g id="node36" class="node">
<title>EscapeHtmlPipe </title>
<polygon fill="#fb8072" stroke="black" points="3450.31,-236.8 3337.69,-236.8 3337.69,-200.8 3450.31,-200.8 3450.31,-236.8"/>
<text text-anchor="middle" x="3394" y="-214.6" font-family="Times,serif" font-size="14.00">EscapeHtmlPipe </text>
</g>
<!-- PipesModule&#45;&gt;EscapeHtmlPipe  -->
<g id="edge34" class="edge">
<title>PipesModule&#45;&gt;EscapeHtmlPipe </title>
<path fill="none" stroke="black" stroke-dasharray="5,2" d="M3492.04,-154.8C3460.85,-154.8 3424.87,-154.8 3424.87,-154.8 3424.87,-154.8 3424.87,-190.63 3424.87,-190.63"/>
<polygon fill="black" stroke="black" points="3421.37,-190.63 3424.87,-200.63 3428.37,-190.63 3421.37,-190.63"/>
</g>
<!-- HashRatePipe  -->
<g id="node37" class="node">
<title>HashRatePipe </title>
<polygon fill="#fb8072" stroke="black" points="3319.31,-236.8 3220.69,-236.8 3220.69,-200.8 3319.31,-200.8 3319.31,-236.8"/>
<text text-anchor="middle" x="3270" y="-214.6" font-family="Times,serif" font-size="14.00">HashRatePipe </text>
</g>
<!-- PipesModule&#45;&gt;HashRatePipe  -->
<g id="edge35" class="edge">
<title>PipesModule&#45;&gt;HashRatePipe </title>
<path fill="none" stroke="black" stroke-dasharray="5,2" d="M3491.98,-148.8C3423.01,-148.8 3299.12,-148.8 3299.12,-148.8 3299.12,-148.8 3299.12,-190.77 3299.12,-190.77"/>
<polygon fill="black" stroke="black" points="3295.62,-190.77 3299.12,-200.77 3302.62,-190.77 3295.62,-190.77"/>
</g>
<!-- MarkdownPipe  -->
<g id="node38" class="node">
<title>MarkdownPipe </title>
<polygon fill="#fb8072" stroke="black" points="3202.81,-236.8 3097.19,-236.8 3097.19,-200.8 3202.81,-200.8 3202.81,-236.8"/>
<text text-anchor="middle" x="3150" y="-214.6" font-family="Times,serif" font-size="14.00">MarkdownPipe </text>
</g>
<!-- PipesModule&#45;&gt;MarkdownPipe  -->
<g id="edge36" class="edge">
<title>PipesModule&#45;&gt;MarkdownPipe </title>
<path fill="none" stroke="black" stroke-dasharray="5,2" d="M3491.85,-142.8C3389.76,-142.8 3150,-142.8 3150,-142.8 3150,-142.8 3150,-190.79 3150,-190.79"/>
<polygon fill="black" stroke="black" points="3146.5,-190.79 3150,-200.79 3153.5,-190.79 3146.5,-190.79"/>
</g>
<!-- RemoveTrailingZerosPipe  -->
<g id="node39" class="node">
<title>RemoveTrailingZerosPipe </title>
<polygon fill="#fb8072" stroke="black" points="3960.02,-236.8 3791.98,-236.8 3791.98,-200.8 3960.02,-200.8 3960.02,-236.8"/>
<text text-anchor="middle" x="3876" y="-214.6" font-family="Times,serif" font-size="14.00">RemoveTrailingZerosPipe </text>
</g>
<!-- PipesModule&#45;&gt;RemoveTrailingZerosPipe  -->
<g id="edge37" class="edge">
<title>PipesModule&#45;&gt;RemoveTrailingZerosPipe </title>
<path fill="none" stroke="black" stroke-dasharray="5,2" d="M3581.94,-148.8C3659.23,-148.8 3809.13,-148.8 3809.13,-148.8 3809.13,-148.8 3809.13,-190.77 3809.13,-190.77"/>
<polygon fill="black" stroke="black" points="3805.63,-190.77 3809.13,-200.77 3812.63,-190.77 3805.63,-190.77"/>
</g>
<!-- ShruggiePipe  -->
<g id="node40" class="node">
<title>ShruggiePipe </title>
<polygon fill="#fb8072" stroke="black" points="3774.44,-236.8 3679.56,-236.8 3679.56,-200.8 3774.44,-200.8 3774.44,-236.8"/>
<text text-anchor="middle" x="3727" y="-214.6" font-family="Times,serif" font-size="14.00">ShruggiePipe </text>
</g>
<!-- PipesModule&#45;&gt;ShruggiePipe  -->
<g id="edge38" class="edge">
<title>PipesModule&#45;&gt;ShruggiePipe </title>
<path fill="none" stroke="black" stroke-dasharray="5,2" d="M3581.95,-154.8C3629.23,-154.8 3696.84,-154.8 3696.84,-154.8 3696.84,-154.8 3696.84,-190.63 3696.84,-190.63"/>
<polygon fill="black" stroke="black" points="3693.34,-190.63 3696.84,-200.63 3700.34,-190.63 3693.34,-190.63"/>
</g>
<!-- TimeAgoPipe  -->
<g id="node41" class="node">
<title>TimeAgoPipe </title>
<polygon fill="#fb8072" stroke="black" points="3662.04,-236.8 3563.96,-236.8 3563.96,-200.8 3662.04,-200.8 3662.04,-236.8"/>
<text text-anchor="middle" x="3613" y="-214.6" font-family="Times,serif" font-size="14.00">TimeAgoPipe </text>
</g>
<!-- PipesModule&#45;&gt;TimeAgoPipe  -->
<g id="edge39" class="edge">
<title>PipesModule&#45;&gt;TimeAgoPipe </title>
<path fill="none" stroke="black" stroke-dasharray="5,2" d="M3572.96,-160.81C3572.96,-160.81 3572.96,-190.65 3572.96,-190.65"/>
<polygon fill="black" stroke="black" points="3569.46,-190.65 3572.96,-200.65 3576.46,-190.65 3569.46,-190.65"/>
</g>
<!-- PostComponent -->
<g id="node42" class="node">
<title>PostComponent</title>
<polygon fill="#ffffb3" stroke="black" points="4105.95,-84.8 4000.05,-84.8 4000.05,-48.8 4105.95,-48.8 4105.95,-84.8"/>
<text text-anchor="middle" x="4053" y="-62.6" font-family="Times,serif" font-size="14.00">PostComponent</text>
</g>
<!-- PostModule -->
<g id="node43" class="node">
<title>PostModule</title>
<polygon fill="#8dd3c7" stroke="black" points="4094.67,-160.8 4091.67,-164.8 4070.67,-164.8 4067.67,-160.8 4011.33,-160.8 4011.33,-124.8 4094.67,-124.8 4094.67,-160.8"/>
<text text-anchor="middle" x="4053" y="-138.6" font-family="Times,serif" font-size="14.00">PostModule</text>
</g>
<!-- PostComponent&#45;&gt;PostModule -->
<g id="edge40" class="edge">
<title>PostComponent&#45;&gt;PostModule</title>
<path fill="none" stroke="black" d="M4053,-84.81C4053,-84.81 4053,-114.65 4053,-114.65"/>
<polygon fill="black" stroke="black" points="4049.5,-114.65 4053,-124.65 4056.5,-114.65 4049.5,-114.65"/>
</g>
<!-- RootComponent -->
<g id="node44" class="node">
<title>RootComponent</title>
<polygon fill="#ffffb3" stroke="black" points="532.06,-160.8 423.94,-160.8 423.94,-124.8 532.06,-124.8 532.06,-160.8"/>
<text text-anchor="middle" x="478" y="-138.6" font-family="Times,serif" font-size="14.00">RootComponent</text>
</g>
<!-- RootComponent&#45;&gt;RootModule -->
<g id="edge41" class="edge">
<title>RootComponent&#45;&gt;RootModule</title>
<path fill="none" stroke="black" d="M472.54,-160.81C472.54,-160.81 472.54,-190.65 472.54,-190.65"/>
<polygon fill="black" stroke="black" points="469.04,-190.65 472.54,-200.65 476.04,-190.65 469.04,-190.65"/>
</g>
<!-- SettingsComponent -->
<g id="node46" class="node">
<title>SettingsComponent</title>
<polygon fill="#ffffb3" stroke="black" points="2489.45,-160.8 2362.55,-160.8 2362.55,-124.8 2489.45,-124.8 2489.45,-160.8"/>
<text text-anchor="middle" x="2426" y="-138.6" font-family="Times,serif" font-size="14.00">SettingsComponent</text>
</g>
<!-- SettingsComponent&#45;&gt;SettingsModule -->
<g id="edge43" class="edge">
<title>SettingsComponent&#45;&gt;SettingsModule</title>
<path fill="none" stroke="black" d="M2416,-160.81C2416,-160.81 2416,-190.65 2416,-190.65"/>
<polygon fill="black" stroke="black" points="2412.5,-190.65 2416,-200.65 2419.5,-190.65 2412.5,-190.65"/>
</g>
<!-- WalletModule -->
<g id="node59" class="node">
<title>WalletModule</title>
<polygon fill="#8dd3c7" stroke="black" points="2765.37,-236.8 2762.37,-240.8 2741.37,-240.8 2738.37,-236.8 2668.63,-236.8 2668.63,-200.8 2765.37,-200.8 2765.37,-236.8"/>
<text text-anchor="middle" x="2717" y="-214.6" font-family="Times,serif" font-size="14.00">WalletModule</text>
</g>
<!-- SettingsComponent&#45;&gt;WalletModule -->
<g id="edge53" class="edge">
<title>SettingsComponent&#45;&gt;WalletModule</title>
<path fill="none" stroke="black" d="M2478.78,-161C2478.78,-185.16 2478.78,-224.8 2478.78,-224.8 2478.78,-224.8 2658.5,-224.8 2658.5,-224.8"/>
<polygon fill="black" stroke="black" points="2658.5,-228.3 2668.5,-224.8 2658.5,-221.3 2658.5,-228.3"/>
</g>
<!-- NoDaemonRunningDialog -->
<g id="node48" class="node">
<title>NoDaemonRunningDialog</title>
<polygon fill="#ffffb3" stroke="black" points="468.36,-84.8 301.64,-84.8 301.64,-48.8 468.36,-48.8 468.36,-84.8"/>
<text text-anchor="middle" x="385" y="-62.6" font-family="Times,serif" font-size="14.00">NoDaemonRunningDialog</text>
</g>
<!-- NoDaemonRunningDialog&#45;&gt;StatusModule -->
<g id="edge45" class="edge">
<title>NoDaemonRunningDialog&#45;&gt;StatusModule</title>
<path fill="none" stroke="black" d="M446.08,-85.29C446.08,-96.94 446.08,-109.8 446.08,-109.8 446.08,-109.8 636.45,-109.8 636.45,-109.8 636.45,-109.8 636.45,-114.76 636.45,-114.76"/>
<polygon fill="black" stroke="black" points="632.95,-114.76 636.45,-124.76 639.95,-114.76 632.95,-114.76"/>
</g>
<!-- StatusComponent -->
<g id="node49" class="node">
<title>StatusComponent</title>
<polygon fill="#ffffb3" stroke="black" points="283.56,-84.8 168.44,-84.8 168.44,-48.8 283.56,-48.8 283.56,-84.8"/>
<text text-anchor="middle" x="226" y="-62.6" font-family="Times,serif" font-size="14.00">StatusComponent</text>
</g>
<!-- StatusComponent&#45;&gt;StatusModule -->
<g id="edge46" class="edge">
<title>StatusComponent&#45;&gt;StatusModule</title>
<path fill="none" stroke="black" d="M226,-84.95C226,-98.54 226,-114.8 226,-114.8 226,-114.8 615,-114.8 615,-114.8 615,-114.8 615,-115.78 615,-115.78"/>
<polygon fill="black" stroke="black" points="611.5,-114.59 615,-124.59 618.5,-114.59 611.5,-114.59"/>
</g>
<!-- UserComponent -->
<g id="node51" class="node">
<title>UserComponent</title>
<polygon fill="#ffffb3" stroke="black" points="4253.76,-84.8 4146.24,-84.8 4146.24,-48.8 4253.76,-48.8 4253.76,-84.8"/>
<text text-anchor="middle" x="4200" y="-62.6" font-family="Times,serif" font-size="14.00">UserComponent</text>
</g>
<!-- UserModule -->
<g id="node52" class="node">
<title>UserModule</title>
<polygon fill="#8dd3c7" stroke="black" points="4242.98,-160.8 4239.98,-164.8 4218.98,-164.8 4215.98,-160.8 4157.02,-160.8 4157.02,-124.8 4242.98,-124.8 4242.98,-160.8"/>
<text text-anchor="middle" x="4200" y="-138.6" font-family="Times,serif" font-size="14.00">UserModule</text>
</g>
<!-- UserComponent&#45;&gt;UserModule -->
<g id="edge48" class="edge">
<title>UserComponent&#45;&gt;UserModule</title>
<path fill="none" stroke="black" d="M4200,-84.81C4200,-84.81 4200,-114.65 4200,-114.65"/>
<polygon fill="black" stroke="black" points="4196.5,-114.65 4200,-124.65 4203.5,-114.65 4196.5,-114.65"/>
</g>
<!-- VpnComponent -->
<g id="node53" class="node">
<title>VpnComponent</title>
<polygon fill="#ffffb3" stroke="black" points="4399.94,-84.8 4294.06,-84.8 4294.06,-48.8 4399.94,-48.8 4399.94,-84.8"/>
<text text-anchor="middle" x="4347" y="-62.6" font-family="Times,serif" font-size="14.00">VpnComponent</text>
</g>
<!-- VpnModule -->
<g id="node54" class="node">
<title>VpnModule</title>
<polygon fill="#8dd3c7" stroke="black" points="4388.66,-160.8 4385.66,-164.8 4364.66,-164.8 4361.66,-160.8 4305.34,-160.8 4305.34,-124.8 4388.66,-124.8 4388.66,-160.8"/>
<text text-anchor="middle" x="4347" y="-138.6" font-family="Times,serif" font-size="14.00">VpnModule</text>
</g>
<!-- VpnComponent&#45;&gt;VpnModule -->
<g id="edge49" class="edge">
<title>VpnComponent&#45;&gt;VpnModule</title>
<path fill="none" stroke="black" d="M4347,-84.81C4347,-84.81 4347,-114.65 4347,-114.65"/>
<polygon fill="black" stroke="black" points="4343.5,-114.65 4347,-124.65 4350.5,-114.65 4343.5,-114.65"/>
</g>
<!-- BackupComponent -->
<g id="node55" class="node">
<title>BackupComponent</title>
<polygon fill="#ffffb3" stroke="black" points="2779.1,-160.8 2654.9,-160.8 2654.9,-124.8 2779.1,-124.8 2779.1,-160.8"/>
<text text-anchor="middle" x="2717" y="-138.6" font-family="Times,serif" font-size="14.00">BackupComponent</text>
</g>
<!-- BackupComponent&#45;&gt;WalletModule -->
<g id="edge50" class="edge">
<title>BackupComponent&#45;&gt;WalletModule</title>
<path fill="none" stroke="black" d="M2717,-160.81C2717,-160.81 2717,-190.65 2717,-190.65"/>
<polygon fill="black" stroke="black" points="2713.5,-190.65 2717,-200.65 2720.5,-190.65 2713.5,-190.65"/>
</g>
<!-- NewComponent -->
<g id="node56" class="node">
<title>NewComponent</title>
<polygon fill="#ffffb3" stroke="black" points="2636.76,-160.8 2529.24,-160.8 2529.24,-124.8 2636.76,-124.8 2636.76,-160.8"/>
<text text-anchor="middle" x="2583" y="-138.6" font-family="Times,serif" font-size="14.00">NewComponent</text>
</g>
<!-- NewComponent&#45;&gt;WalletModule -->
<g id="edge51" class="edge">
<title>NewComponent&#45;&gt;WalletModule</title>
<path fill="none" stroke="black" d="M2583,-160.83C2583,-181.57 2583,-212.8 2583,-212.8 2583,-212.8 2658.62,-212.8 2658.62,-212.8"/>
<polygon fill="black" stroke="black" points="2658.62,-216.3 2668.62,-212.8 2658.62,-209.3 2658.62,-216.3"/>
</g>
<!-- RestoreComponent -->
<g id="node57" class="node">
<title>RestoreComponent</title>
<polygon fill="#ffffb3" stroke="black" points="3057.09,-160.8 2932.91,-160.8 2932.91,-124.8 3057.09,-124.8 3057.09,-160.8"/>
<text text-anchor="middle" x="2995" y="-138.6" font-family="Times,serif" font-size="14.00">RestoreComponent</text>
</g>
<!-- RestoreComponent&#45;&gt;WalletModule -->
<g id="edge52" class="edge">
<title>RestoreComponent&#45;&gt;WalletModule</title>
<path fill="none" stroke="black" d="M2995,-161C2995,-185.16 2995,-224.8 2995,-224.8 2995,-224.8 2775.42,-224.8 2775.42,-224.8"/>
<polygon fill="black" stroke="black" points="2775.42,-221.3 2765.42,-224.8 2775.42,-228.3 2775.42,-221.3"/>
</g>
<!-- WalletComponent -->
<g id="node58" class="node">
<title>WalletComponent</title>
<polygon fill="#ffffb3" stroke="black" points="2915.15,-160.8 2796.85,-160.8 2796.85,-124.8 2915.15,-124.8 2915.15,-160.8"/>
<text text-anchor="middle" x="2856" y="-138.6" font-family="Times,serif" font-size="14.00">WalletComponent</text>
</g>
<!-- WalletComponent&#45;&gt;WalletModule -->
<g id="edge54" class="edge">
<title>WalletComponent&#45;&gt;WalletModule</title>
<path fill="none" stroke="black" d="M2856,-160.83C2856,-181.57 2856,-212.8 2856,-212.8 2856,-212.8 2775.62,-212.8 2775.62,-212.8"/>
<polygon fill="black" stroke="black" points="2775.62,-209.3 2765.62,-212.8 2775.62,-216.3 2775.62,-209.3"/>
</g>
</g>
</svg>
