<?xml version="1.0" encoding="UTF-8" standalone="no"?>
<!DOCTYPE svg PUBLIC "-//W3C//DTD SVG 1.1//EN"
 "http://www.w3.org/Graphics/SVG/1.1/DTD/svg11.dtd">
<!-- Generated by graphviz version 2.47.3 (20210619.1520)
 -->
<!-- Title: dependencies Pages: 1 -->
<svg width="1009pt" height="247pt"
 viewBox="0.00 0.00 1009.00 246.80" xmlns="http://www.w3.org/2000/svg" xmlns:xlink="http://www.w3.org/1999/xlink">
<g id="graph0" class="graph" transform="scale(1 1) rotate(0) translate(4 242.8)">
<title>dependencies</title>
<polygon fill="white" stroke="transparent" points="-4,4 -4,-242.8 1005,-242.8 1005,4 -4,4"/>
<text text-anchor="middle" x="500.5" y="-8.2" font-family="sans-serif" font-size="14.00">dependencies</text>
<g id="clust1" class="cluster">
<title>cluster_AppModule</title>
<polygon fill="none" stroke="black" stroke-dasharray="1,5" points="8,-32.8 8,-230.8 993,-230.8 993,-32.8 8,-32.8"/>
</g>
<g id="clust6" class="cluster">
<title>cluster_AppModule_bootstrap</title>
<polygon fill="none" stroke="black" points="441,-170.8 441,-222.8 565,-222.8 565,-170.8 441,-170.8"/>
</g>
<g id="clust4" class="cluster">
<title>cluster_AppModule_imports</title>
<polygon fill="none" stroke="black" points="146,-40.8 146,-92.8 985,-92.8 985,-40.8 146,-40.8"/>
</g>
<g id="clust2" class="cluster">
<title>cluster_AppModule_declarations</title>
<polygon fill="none" stroke="black" points="16,-40.8 16,-92.8 138,-92.8 138,-40.8 16,-40.8"/>
</g>
<!-- AppComponent -->
<g id="node1" class="node">
<title>AppComponent</title>
<polygon fill="#ffffb3" stroke="black" points="129.94,-84.8 24.06,-84.8 24.06,-48.8 129.94,-48.8 129.94,-84.8"/>
<text text-anchor="middle" x="77" y="-62.6" font-family="Times,serif" font-size="14.00">AppComponent</text>
</g>
<!-- AppModule -->
<g id="node2" class="node">
<title>AppModule</title>
<polygon fill="#8dd3c7" stroke="black" points="544.66,-149.8 541.66,-153.8 520.66,-153.8 517.66,-149.8 461.34,-149.8 461.34,-113.8 544.66,-113.8 544.66,-149.8"/>
<text text-anchor="middle" x="503" y="-127.6" font-family="Times,serif" font-size="14.00">AppModule</text>
</g>
<!-- AppComponent&#45;&gt;AppModule -->
<g id="edge1" class="edge">
<title>AppComponent&#45;&gt;AppModule</title>
<path fill="none" stroke="black" d="M77,-85.09C77,-107.01 77,-140.8 77,-140.8 77,-140.8 450.99,-140.8 450.99,-140.8"/>
<polygon fill="black" stroke="black" points="450.99,-144.3 460.99,-140.8 450.99,-137.3 450.99,-144.3"/>
</g>
<!-- AppComponent  -->
<g id="node10" class="node">
<title>AppComponent </title>
<polygon fill="#80b1d3" stroke="black" points="557.44,-214.8 448.56,-214.8 448.56,-178.8 557.44,-178.8 557.44,-214.8"/>
<text text-anchor="middle" x="503" y="-192.6" font-family="Times,serif" font-size="14.00">AppComponent </text>
</g>
<!-- AppModule&#45;&gt;AppComponent  -->
<g id="edge9" class="edge">
<title>AppModule&#45;&gt;AppComponent </title>
<path fill="none" stroke="black" stroke-dasharray="1,5" d="M503,-149.91C503,-149.91 503,-168.79 503,-168.79"/>
<polygon fill="black" stroke="black" points="499.5,-168.79 503,-178.79 506.5,-168.79 499.5,-168.79"/>
</g>
<!-- AppRoutingModule -->
<g id="node3" class="node">
<title>AppRoutingModule</title>
<polygon fill="#8dd3c7" stroke="black" points="977.27,-84.8 974.27,-88.8 953.27,-88.8 950.27,-84.8 848.73,-84.8 848.73,-48.8 977.27,-48.8 977.27,-84.8"/>
<text text-anchor="middle" x="913" y="-62.6" font-family="Times,serif" font-size="14.00">AppRoutingModule</text>
</g>
<!-- AppRoutingModule&#45;&gt;AppModule -->
<g id="edge2" class="edge">
<title>AppRoutingModule&#45;&gt;AppModule</title>
<path fill="none" stroke="black" d="M913,-85.09C913,-107.01 913,-140.8 913,-140.8 913,-140.8 554.95,-140.8 554.95,-140.8"/>
<polygon fill="black" stroke="black" points="554.95,-137.3 544.95,-140.8 554.95,-144.3 554.95,-137.3"/>
</g>
<!-- AuthModule -->
<g id="node4" class="node">
<title>AuthModule</title>
<polygon fill="#8dd3c7" stroke="black" points="830.55,-84.8 827.55,-88.8 806.55,-88.8 803.55,-84.8 743.45,-84.8 743.45,-48.8 830.55,-48.8 830.55,-84.8"/>
<text text-anchor="middle" x="787" y="-62.6" font-family="Times,serif" font-size="14.00">AuthModule</text>
</g>
<!-- AuthModule&#45;&gt;AppModule -->
<g id="edge3" class="edge">
<title>AuthModule&#45;&gt;AppModule</title>
<path fill="none" stroke="black" d="M787,-84.91C787,-104.14 787,-131.8 787,-131.8 787,-131.8 554.91,-131.8 554.91,-131.8"/>
<polygon fill="black" stroke="black" points="554.91,-128.3 544.91,-131.8 554.91,-135.3 554.91,-128.3"/>
</g>
<!-- ConsoleModule -->
<g id="node5" class="node">
<title>ConsoleModule</title>
<polygon fill="#8dd3c7" stroke="black" points="725.94,-84.8 722.94,-88.8 701.94,-88.8 698.94,-84.8 620.06,-84.8 620.06,-48.8 725.94,-48.8 725.94,-84.8"/>
<text text-anchor="middle" x="673" y="-62.6" font-family="Times,serif" font-size="14.00">ConsoleModule</text>
</g>
<!-- ConsoleModule&#45;&gt;AppModule -->
<g id="edge4" class="edge">
<title>ConsoleModule&#45;&gt;AppModule</title>
<path fill="none" stroke="black" d="M673,-84.83C673,-101.2 673,-122.8 673,-122.8 673,-122.8 555.02,-122.8 555.02,-122.8"/>
<polygon fill="black" stroke="black" points="555.02,-119.3 545.02,-122.8 555.02,-126.3 555.02,-119.3"/>
</g>
<!-- DataModule -->
<g id="node6" class="node">
<title>DataModule</title>
<polygon fill="#8dd3c7" stroke="black" points="601.98,-84.8 598.98,-88.8 577.98,-88.8 574.98,-84.8 516.02,-84.8 516.02,-48.8 601.98,-48.8 601.98,-84.8"/>
<text text-anchor="middle" x="559" y="-62.6" font-family="Times,serif" font-size="14.00">DataModule</text>
</g>
<!-- DataModule&#45;&gt;AppModule -->
<g id="edge5" class="edge">
<title>DataModule&#45;&gt;AppModule</title>
<path fill="none" stroke="black" d="M530.42,-84.91C530.42,-84.91 530.42,-103.79 530.42,-103.79"/>
<polygon fill="black" stroke="black" points="526.92,-103.79 530.42,-113.79 533.92,-103.79 526.92,-103.79"/>
</g>
<!-- PluginsModule -->
<g id="node7" class="node">
<title>PluginsModule</title>
<polygon fill="#8dd3c7" stroke="black" points="497.56,-84.8 494.56,-88.8 473.56,-88.8 470.56,-84.8 396.44,-84.8 396.44,-48.8 497.56,-48.8 497.56,-84.8"/>
<text text-anchor="middle" x="447" y="-62.6" font-family="Times,serif" font-size="14.00">PluginsModule</text>
</g>
<!-- PluginsModule&#45;&gt;AppModule -->
<g id="edge6" class="edge">
<title>PluginsModule&#45;&gt;AppModule</title>
<path fill="none" stroke="black" d="M479.48,-84.91C479.48,-84.91 479.48,-103.79 479.48,-103.79"/>
<polygon fill="black" stroke="black" points="475.98,-103.79 479.48,-113.79 482.98,-103.79 475.98,-103.79"/>
</g>
<!-- StatusModule -->
<g id="node8" class="node">
<title>StatusModule</title>
<polygon fill="#8dd3c7" stroke="black" points="377.77,-84.8 374.77,-88.8 353.77,-88.8 350.77,-84.8 284.23,-84.8 284.23,-48.8 377.77,-48.8 377.77,-84.8"/>
<text text-anchor="middle" x="331" y="-62.6" font-family="Times,serif" font-size="14.00">StatusModule</text>
</g>
<!-- StatusModule&#45;&gt;AppModule -->
<g id="edge7" class="edge">
<title>StatusModule&#45;&gt;AppModule</title>
<path fill="none" stroke="black" d="M331,-84.83C331,-101.2 331,-122.8 331,-122.8 331,-122.8 450.92,-122.8 450.92,-122.8"/>
<polygon fill="black" stroke="black" points="450.92,-126.3 460.92,-122.8 450.92,-119.3 450.92,-126.3"/>
</g>
<!-- TranslateModule -->
<g id="node9" class="node">
<title>TranslateModule</title>
<polygon fill="#8dd3c7" stroke="black" points="265.63,-84.8 262.63,-88.8 241.63,-88.8 238.63,-84.8 154.37,-84.8 154.37,-48.8 265.63,-48.8 265.63,-84.8"/>
<text text-anchor="middle" x="210" y="-62.6" font-family="Times,serif" font-size="14.00">TranslateModule</text>
</g>
<!-- TranslateModule&#45;&gt;AppModule -->
<g id="edge8" class="edge">
<title>TranslateModule&#45;&gt;AppModule</title>
<path fill="none" stroke="black" d="M210,-84.91C210,-104.14 210,-131.8 210,-131.8 210,-131.8 451.33,-131.8 451.33,-131.8"/>
<polygon fill="black" stroke="black" points="451.33,-135.3 461.33,-131.8 451.33,-128.3 451.33,-135.3"/>
</g>
</g>
</svg>
