<?xml version="1.0" encoding="UTF-8" standalone="no"?>
<!DOCTYPE svg PUBLIC "-//W3C//DTD SVG 1.1//EN"
 "http://www.w3.org/Graphics/SVG/1.1/DTD/svg11.dtd">
<!-- Generated by graphviz version 2.47.3 (20210619.1520)
 -->
<!-- Title: dependencies Pages: 1 -->
<svg width="998pt" height="174pt"
 viewBox="0.00 0.00 998.00 173.80" xmlns="http://www.w3.org/2000/svg" xmlns:xlink="http://www.w3.org/1999/xlink">
<g id="graph0" class="graph" transform="scale(1 1) rotate(0) translate(4 169.8)">
<title>dependencies</title>
<polygon fill="white" stroke="transparent" points="-4,4 -4,-169.8 994,-169.8 994,4 -4,4"/>
<text text-anchor="middle" x="495" y="-8.2" font-family="sans-serif" font-size="14.00">dependencies</text>
<g id="clust1" class="cluster">
<title>cluster_AppRoutingModule</title>
<polygon fill="none" stroke="black" stroke-dasharray="1,5" points="8,-32.8 8,-157.8 982,-157.8 982,-32.8 8,-32.8"/>
</g>
<g id="clust3" class="cluster">
<title>cluster_AppRoutingModule_imports</title>
<polygon fill="none" stroke="black" points="16,-40.8 16,-92.8 974,-92.8 974,-40.8 16,-40.8"/>
</g>
<!-- BlockchainRoutingModule -->
<g id="node1" class="node">
<title>BlockchainRoutingModule</title>
<polygon fill="#8dd3c7" stroke="black" points="966.43,-84.8 963.43,-88.8 942.43,-88.8 939.43,-84.8 797.57,-84.8 797.57,-48.8 966.43,-48.8 966.43,-84.8"/>
<text text-anchor="middle" x="882" y="-62.6" font-family="Times,serif" font-size="14.00">BlockchainRoutingModule</text>
</g>
<!-- AppRoutingModule -->
<g id="node7" class="node">
<title>AppRoutingModule</title>
<polygon fill="#8dd3c7" stroke="black" points="551.27,-149.8 548.27,-153.8 527.27,-153.8 524.27,-149.8 422.73,-149.8 422.73,-113.8 551.27,-113.8 551.27,-149.8"/>
<text text-anchor="middle" x="487" y="-127.6" font-family="Times,serif" font-size="14.00">AppRoutingModule</text>
</g>
<!-- BlockchainRoutingModule&#45;&gt;AppRoutingModule -->
<g id="edge1" class="edge">
<title>BlockchainRoutingModule&#45;&gt;AppRoutingModule</title>
<path fill="none" stroke="black" d="M882,-85.08C882,-106.12 882,-137.8 882,-137.8 882,-137.8 561.34,-137.8 561.34,-137.8"/>
<polygon fill="black" stroke="black" points="561.34,-134.3 551.34,-137.8 561.34,-141.3 561.34,-134.3"/>
</g>
<!-- PostRoutingModule -->
<g id="node2" class="node">
<title>PostRoutingModule</title>
<polygon fill="#8dd3c7" stroke="black" points="779.29,-84.8 776.29,-88.8 755.29,-88.8 752.29,-84.8 650.71,-84.8 650.71,-48.8 779.29,-48.8 779.29,-84.8"/>
<text text-anchor="middle" x="715" y="-62.6" font-family="Times,serif" font-size="14.00">PostRoutingModule</text>
</g>
<!-- PostRoutingModule&#45;&gt;AppRoutingModule -->
<g id="edge2" class="edge">
<title>PostRoutingModule&#45;&gt;AppRoutingModule</title>
<path fill="none" stroke="black" d="M715,-84.82C715,-102.17 715,-125.8 715,-125.8 715,-125.8 561.42,-125.8 561.42,-125.8"/>
<polygon fill="black" stroke="black" points="561.42,-122.3 551.42,-125.8 561.42,-129.3 561.42,-122.3"/>
</g>
<!-- RootRoutingModule -->
<g id="node3" class="node">
<title>RootRoutingModule</title>
<polygon fill="#8dd3c7" stroke="black" points="632.89,-84.8 629.89,-88.8 608.89,-88.8 605.89,-84.8 501.11,-84.8 501.11,-48.8 632.89,-48.8 632.89,-84.8"/>
<text text-anchor="middle" x="567" y="-62.6" font-family="Times,serif" font-size="14.00">RootRoutingModule</text>
</g>
<!-- RootRoutingModule&#45;&gt;AppRoutingModule -->
<g id="edge3" class="edge">
<title>RootRoutingModule&#45;&gt;AppRoutingModule</title>
<path fill="none" stroke="black" d="M526.22,-84.91C526.22,-84.91 526.22,-103.79 526.22,-103.79"/>
<polygon fill="black" stroke="black" points="522.72,-103.79 526.22,-113.79 529.72,-103.79 522.72,-103.79"/>
</g>
<!-- SettingsRoutingModule -->
<g id="node4" class="node">
<title>SettingsRoutingModule</title>
<polygon fill="#8dd3c7" stroke="black" points="482.78,-84.8 479.78,-88.8 458.78,-88.8 455.78,-84.8 333.22,-84.8 333.22,-48.8 482.78,-48.8 482.78,-84.8"/>
<text text-anchor="middle" x="408" y="-62.6" font-family="Times,serif" font-size="14.00">SettingsRoutingModule</text>
</g>
<!-- SettingsRoutingModule&#45;&gt;AppRoutingModule -->
<g id="edge4" class="edge">
<title>SettingsRoutingModule&#45;&gt;AppRoutingModule</title>
<path fill="none" stroke="black" d="M452.75,-84.91C452.75,-84.91 452.75,-103.79 452.75,-103.79"/>
<polygon fill="black" stroke="black" points="449.25,-103.79 452.75,-113.79 456.25,-103.79 449.25,-103.79"/>
</g>
<!-- UserRoutingModule -->
<g id="node5" class="node">
<title>UserRoutingModule</title>
<polygon fill="#8dd3c7" stroke="black" points="315.59,-84.8 312.59,-88.8 291.59,-88.8 288.59,-84.8 184.41,-84.8 184.41,-48.8 315.59,-48.8 315.59,-84.8"/>
<text text-anchor="middle" x="250" y="-62.6" font-family="Times,serif" font-size="14.00">UserRoutingModule</text>
</g>
<!-- UserRoutingModule&#45;&gt;AppRoutingModule -->
<g id="edge5" class="edge">
<title>UserRoutingModule&#45;&gt;AppRoutingModule</title>
<path fill="none" stroke="black" d="M250,-84.82C250,-102.17 250,-125.8 250,-125.8 250,-125.8 412.55,-125.8 412.55,-125.8"/>
<polygon fill="black" stroke="black" points="412.55,-129.3 422.55,-125.8 412.55,-122.3 412.55,-129.3"/>
</g>
<!-- WalletRoutingModule -->
<g id="node6" class="node">
<title>WalletRoutingModule</title>
<polygon fill="#8dd3c7" stroke="black" points="165.98,-84.8 162.98,-88.8 141.98,-88.8 138.98,-84.8 24.02,-84.8 24.02,-48.8 165.98,-48.8 165.98,-84.8"/>
<text text-anchor="middle" x="95" y="-62.6" font-family="Times,serif" font-size="14.00">WalletRoutingModule</text>
</g>
<!-- WalletRoutingModule&#45;&gt;AppRoutingModule -->
<g id="edge6" class="edge">
<title>WalletRoutingModule&#45;&gt;AppRoutingModule</title>
<path fill="none" stroke="black" d="M95,-85.08C95,-106.12 95,-137.8 95,-137.8 95,-137.8 412.71,-137.8 412.71,-137.8"/>
<polygon fill="black" stroke="black" points="412.71,-141.3 422.71,-137.8 412.71,-134.3 412.71,-141.3"/>
</g>
</g>
</svg>
