<?xml version="1.0" encoding="UTF-8" standalone="no"?>
<!DOCTYPE svg PUBLIC "-//W3C//DTD SVG 1.1//EN"
 "http://www.w3.org/Graphics/SVG/1.1/DTD/svg11.dtd">
<!-- Generated by graphviz version 2.47.3 (20210619.1520)
 -->
<!-- Title: dependencies Pages: 1 -->
<svg width="1142pt" height="247pt"
 viewBox="0.00 0.00 1142.00 246.80" xmlns="http://www.w3.org/2000/svg" xmlns:xlink="http://www.w3.org/1999/xlink">
<g id="graph0" class="graph" transform="scale(1 1) rotate(0) translate(4 242.8)">
<title>dependencies</title>
<polygon fill="white" stroke="transparent" points="-4,4 -4,-242.8 1138,-242.8 1138,4 -4,4"/>
<text text-anchor="middle" x="567" y="-8.2" font-family="sans-serif" font-size="14.00">dependencies</text>
<g id="clust1" class="cluster">
<title>cluster_PipesModule</title>
<polygon fill="none" stroke="black" stroke-dasharray="1,5" points="8,-32.8 8,-230.8 1126,-230.8 1126,-32.8 8,-32.8"/>
</g>
<g id="clust13" class="cluster">
<title>cluster_PipesModule_exports</title>
<polygon fill="none" stroke="black" points="16,-170.8 16,-222.8 1118,-222.8 1118,-170.8 16,-170.8"/>
</g>
<g id="clust2" class="cluster">
<title>cluster_PipesModule_declarations</title>
<polygon fill="none" stroke="black" points="32,-40.8 32,-92.8 1104,-92.8 1104,-40.8 32,-40.8"/>
</g>
<!-- EffortPipe -->
<g id="node1" class="node">
<title>EffortPipe</title>
<polygon fill="#ffffb3" stroke="black" points="1096.31,-84.8 1021.69,-84.8 1021.69,-48.8 1096.31,-48.8 1096.31,-84.8"/>
<text text-anchor="middle" x="1059" y="-62.6" font-family="Times,serif" font-size="14.00">EffortPipe</text>
</g>
<!-- PipesModule -->
<g id="node10" class="node">
<title>PipesModule</title>
<polygon fill="#8dd3c7" stroke="black" points="641.88,-149.8 638.88,-153.8 617.88,-153.8 614.88,-149.8 552.12,-149.8 552.12,-113.8 641.88,-113.8 641.88,-149.8"/>
<text text-anchor="middle" x="597" y="-127.6" font-family="Times,serif" font-size="14.00">PipesModule</text>
</g>
<!-- EffortPipe&#45;&gt;PipesModule -->
<g id="edge1" class="edge">
<title>EffortPipe&#45;&gt;PipesModule</title>
<path fill="none" stroke="black" d="M1026.97,-85.02C1026.97,-103.63 1026.97,-129.8 1026.97,-129.8 1026.97,-129.8 652.2,-129.8 652.2,-129.8"/>
<polygon fill="black" stroke="black" points="652.2,-126.3 642.2,-129.8 652.2,-133.3 652.2,-126.3"/>
</g>
<!-- EscapeHtmlPipe -->
<g id="node2" class="node">
<title>EscapeHtmlPipe</title>
<polygon fill="#ffffb3" stroke="black" points="1003.81,-84.8 894.19,-84.8 894.19,-48.8 1003.81,-48.8 1003.81,-84.8"/>
<text text-anchor="middle" x="949" y="-62.6" font-family="Times,serif" font-size="14.00">EscapeHtmlPipe</text>
</g>
<!-- EscapeHtmlPipe&#45;&gt;PipesModule -->
<g id="edge2" class="edge">
<title>EscapeHtmlPipe&#45;&gt;PipesModule</title>
<path fill="none" stroke="black" d="M897.97,-84.82C897.97,-102.17 897.97,-125.8 897.97,-125.8 897.97,-125.8 652.06,-125.8 652.06,-125.8"/>
<polygon fill="black" stroke="black" points="652.06,-122.3 642.06,-125.8 652.06,-129.3 652.06,-122.3"/>
</g>
<!-- HashLinkPipe -->
<g id="node3" class="node">
<title>HashLinkPipe</title>
<polygon fill="#ffffb3" stroke="black" points="876.1,-84.8 779.9,-84.8 779.9,-48.8 876.1,-48.8 876.1,-84.8"/>
<text text-anchor="middle" x="828" y="-62.6" font-family="Times,serif" font-size="14.00">HashLinkPipe</text>
</g>
<!-- HashLinkPipe&#45;&gt;PipesModule -->
<g id="edge3" class="edge">
<title>HashLinkPipe&#45;&gt;PipesModule</title>
<path fill="none" stroke="black" d="M845.43,-84.81C845.43,-100.85 845.43,-121.8 845.43,-121.8 845.43,-121.8 651.99,-121.8 651.99,-121.8"/>
<polygon fill="black" stroke="black" points="651.99,-118.3 641.99,-121.8 651.99,-125.3 651.99,-118.3"/>
</g>
<!-- HashRatePipe -->
<g id="node4" class="node">
<title>HashRatePipe</title>
<polygon fill="#ffffb3" stroke="black" points="761.81,-84.8 666.19,-84.8 666.19,-48.8 761.81,-48.8 761.81,-84.8"/>
<text text-anchor="middle" x="714" y="-62.6" font-family="Times,serif" font-size="14.00">HashRatePipe</text>
</g>
<!-- HashRatePipe&#45;&gt;PipesModule -->
<g id="edge4" class="edge">
<title>HashRatePipe&#45;&gt;PipesModule</title>
<path fill="none" stroke="black" d="M730.3,-84.92C730.3,-99.58 730.3,-117.8 730.3,-117.8 730.3,-117.8 652.13,-117.8 652.13,-117.8"/>
<polygon fill="black" stroke="black" points="652.13,-114.3 642.13,-117.8 652.13,-121.3 652.13,-114.3"/>
</g>
<!-- MarkdownPipe -->
<g id="node5" class="node">
<title>MarkdownPipe</title>
<polygon fill="#ffffb3" stroke="black" points="648.31,-84.8 545.69,-84.8 545.69,-48.8 648.31,-48.8 648.31,-84.8"/>
<text text-anchor="middle" x="597" y="-62.6" font-family="Times,serif" font-size="14.00">MarkdownPipe</text>
</g>
<!-- MarkdownPipe&#45;&gt;PipesModule -->
<g id="edge5" class="edge">
<title>MarkdownPipe&#45;&gt;PipesModule</title>
<path fill="none" stroke="black" d="M597,-84.91C597,-84.91 597,-103.79 597,-103.79"/>
<polygon fill="black" stroke="black" points="593.5,-103.79 597,-113.79 600.5,-103.79 593.5,-103.79"/>
</g>
<!-- RemoveTrailingZerosPipe -->
<g id="node6" class="node">
<title>RemoveTrailingZerosPipe</title>
<polygon fill="#ffffb3" stroke="black" points="528.02,-84.8 363.98,-84.8 363.98,-48.8 528.02,-48.8 528.02,-84.8"/>
<text text-anchor="middle" x="446" y="-62.6" font-family="Times,serif" font-size="14.00">RemoveTrailingZerosPipe</text>
</g>
<!-- RemoveTrailingZerosPipe&#45;&gt;PipesModule -->
<g id="edge6" class="edge">
<title>RemoveTrailingZerosPipe&#45;&gt;PipesModule</title>
<path fill="none" stroke="black" d="M471.92,-84.92C471.92,-99.58 471.92,-117.8 471.92,-117.8 471.92,-117.8 541.84,-117.8 541.84,-117.8"/>
<polygon fill="black" stroke="black" points="541.84,-121.3 551.84,-117.8 541.84,-114.3 541.84,-121.3"/>
</g>
<!-- ShruggiePipe -->
<g id="node7" class="node">
<title>ShruggiePipe</title>
<polygon fill="#ffffb3" stroke="black" points="345.94,-84.8 254.06,-84.8 254.06,-48.8 345.94,-48.8 345.94,-84.8"/>
<text text-anchor="middle" x="300" y="-62.6" font-family="Times,serif" font-size="14.00">ShruggiePipe</text>
</g>
<!-- ShruggiePipe&#45;&gt;PipesModule -->
<g id="edge7" class="edge">
<title>ShruggiePipe&#45;&gt;PipesModule</title>
<path fill="none" stroke="black" d="M311.74,-84.81C311.74,-100.85 311.74,-121.8 311.74,-121.8 311.74,-121.8 542.11,-121.8 542.11,-121.8"/>
<polygon fill="black" stroke="black" points="542.11,-125.3 552.11,-121.8 542.11,-118.3 542.11,-125.3"/>
</g>
<!-- TimeAgoPipe -->
<g id="node8" class="node">
<title>TimeAgoPipe</title>
<polygon fill="#ffffb3" stroke="black" points="236.04,-84.8 141.96,-84.8 141.96,-48.8 236.04,-48.8 236.04,-84.8"/>
<text text-anchor="middle" x="189" y="-62.6" font-family="Times,serif" font-size="14.00">TimeAgoPipe</text>
</g>
<!-- TimeAgoPipe&#45;&gt;PipesModule -->
<g id="edge8" class="edge">
<title>TimeAgoPipe&#45;&gt;PipesModule</title>
<path fill="none" stroke="black" d="M232.15,-84.82C232.15,-102.17 232.15,-125.8 232.15,-125.8 232.15,-125.8 541.9,-125.8 541.9,-125.8"/>
<polygon fill="black" stroke="black" points="541.9,-129.3 551.9,-125.8 541.9,-122.3 541.9,-129.3"/>
</g>
<!-- ToCoinPipe -->
<g id="node9" class="node">
<title>ToCoinPipe</title>
<polygon fill="#ffffb3" stroke="black" points="123.67,-84.8 40.33,-84.8 40.33,-48.8 123.67,-48.8 123.67,-84.8"/>
<text text-anchor="middle" x="82" y="-62.6" font-family="Times,serif" font-size="14.00">ToCoinPipe</text>
</g>
<!-- ToCoinPipe&#45;&gt;PipesModule -->
<g id="edge9" class="edge">
<title>ToCoinPipe&#45;&gt;PipesModule</title>
<path fill="none" stroke="black" d="M117.71,-85.02C117.71,-103.63 117.71,-129.8 117.71,-129.8 117.71,-129.8 541.91,-129.8 541.91,-129.8"/>
<polygon fill="black" stroke="black" points="541.91,-133.3 551.91,-129.8 541.91,-126.3 541.91,-133.3"/>
</g>
<!-- EffortPipe  -->
<g id="node11" class="node">
<title>EffortPipe </title>
<polygon fill="#fb8072" stroke="black" points="1109.81,-214.8 1032.19,-214.8 1032.19,-178.8 1109.81,-178.8 1109.81,-214.8"/>
<text text-anchor="middle" x="1071" y="-192.6" font-family="Times,serif" font-size="14.00">EffortPipe </text>
</g>
<!-- PipesModule&#45;&gt;EffortPipe  -->
<g id="edge10" class="edge">
<title>PipesModule&#45;&gt;EffortPipe </title>
<path fill="none" stroke="black" stroke-dasharray="5,2" d="M642.21,-133.8C759.44,-133.8 1064.12,-133.8 1064.12,-133.8 1064.12,-133.8 1064.12,-168.58 1064.12,-168.58"/>
<polygon fill="black" stroke="black" points="1060.63,-168.58 1064.12,-178.58 1067.63,-168.58 1060.63,-168.58"/>
</g>
<!-- EscapeHtmlPipe  -->
<g id="node12" class="node">
<title>EscapeHtmlPipe </title>
<polygon fill="#fb8072" stroke="black" points="1014.31,-214.8 901.69,-214.8 901.69,-178.8 1014.31,-178.8 1014.31,-214.8"/>
<text text-anchor="middle" x="958" y="-192.6" font-family="Times,serif" font-size="14.00">EscapeHtmlPipe </text>
</g>
<!-- PipesModule&#45;&gt;EscapeHtmlPipe  -->
<g id="edge11" class="edge">
<title>PipesModule&#45;&gt;EscapeHtmlPipe </title>
<path fill="none" stroke="black" stroke-dasharray="5,2" d="M642.04,-137.8C737.73,-137.8 952.62,-137.8 952.62,-137.8 952.62,-137.8 952.62,-168.78 952.62,-168.78"/>
<polygon fill="black" stroke="black" points="949.13,-168.78 952.62,-178.78 956.13,-168.78 949.13,-168.78"/>
</g>
<!-- HashLinkPipe  -->
<g id="node13" class="node">
<title>HashLinkPipe </title>
<polygon fill="#fb8072" stroke="black" points="883.6,-214.8 784.4,-214.8 784.4,-178.8 883.6,-178.8 883.6,-214.8"/>
<text text-anchor="middle" x="834" y="-192.6" font-family="Times,serif" font-size="14.00">HashLinkPipe </text>
</g>
<!-- PipesModule&#45;&gt;HashLinkPipe  -->
<g id="edge12" class="edge">
<title>PipesModule&#45;&gt;HashLinkPipe </title>
<path fill="none" stroke="black" stroke-dasharray="5,2" d="M642.13,-141.8C705.93,-141.8 814.82,-141.8 814.82,-141.8 814.82,-141.8 814.82,-168.79 814.82,-168.79"/>
<polygon fill="black" stroke="black" points="811.32,-168.79 814.82,-178.79 818.32,-168.79 811.32,-168.79"/>
</g>
<!-- HashRatePipe  -->
<g id="node14" class="node">
<title>HashRatePipe </title>
<polygon fill="#fb8072" stroke="black" points="766.31,-214.8 667.69,-214.8 667.69,-178.8 766.31,-178.8 766.31,-214.8"/>
<text text-anchor="middle" x="717" y="-192.6" font-family="Times,serif" font-size="14.00">HashRatePipe </text>
</g>
<!-- PipesModule&#45;&gt;HashRatePipe  -->
<g id="edge13" class="edge">
<title>PipesModule&#45;&gt;HashRatePipe </title>
<path fill="none" stroke="black" stroke-dasharray="5,2" d="M642.01,-145.8C669.32,-145.8 698.95,-145.8 698.95,-145.8 698.95,-145.8 698.95,-168.68 698.95,-168.68"/>
<polygon fill="black" stroke="black" points="695.45,-168.68 698.95,-178.68 702.45,-168.68 695.45,-168.68"/>
</g>
<!-- MarkdownPipe  -->
<g id="node15" class="node">
<title>MarkdownPipe </title>
<polygon fill="#fb8072" stroke="black" points="649.81,-214.8 544.19,-214.8 544.19,-178.8 649.81,-178.8 649.81,-214.8"/>
<text text-anchor="middle" x="597" y="-192.6" font-family="Times,serif" font-size="14.00">MarkdownPipe </text>
</g>
<!-- PipesModule&#45;&gt;MarkdownPipe  -->
<g id="edge14" class="edge">
<title>PipesModule&#45;&gt;MarkdownPipe </title>
<path fill="none" stroke="black" stroke-dasharray="5,2" d="M597,-149.91C597,-149.91 597,-168.79 597,-168.79"/>
<polygon fill="black" stroke="black" points="593.5,-168.79 597,-178.79 600.5,-168.79 593.5,-168.79"/>
</g>
<!-- RemoveTrailingZerosPipe  -->
<g id="node16" class="node">
<title>RemoveTrailingZerosPipe </title>
<polygon fill="#fb8072" stroke="black" points="526.02,-214.8 357.98,-214.8 357.98,-178.8 526.02,-178.8 526.02,-214.8"/>
<text text-anchor="middle" x="442" y="-192.6" font-family="Times,serif" font-size="14.00">RemoveTrailingZerosPipe </text>
</g>
<!-- PipesModule&#45;&gt;RemoveTrailingZerosPipe  -->
<g id="edge15" class="edge">
<title>PipesModule&#45;&gt;RemoveTrailingZerosPipe </title>
<path fill="none" stroke="black" stroke-dasharray="5,2" d="M551.79,-145.8C498.71,-145.8 417.83,-145.8 417.83,-145.8 417.83,-145.8 417.83,-168.68 417.83,-168.68"/>
<polygon fill="black" stroke="black" points="414.33,-168.68 417.83,-178.68 421.33,-168.68 414.33,-168.68"/>
</g>
<!-- ShruggiePipe  -->
<g id="node17" class="node">
<title>ShruggiePipe </title>
<polygon fill="#fb8072" stroke="black" points="340.44,-214.8 245.56,-214.8 245.56,-178.8 340.44,-178.8 340.44,-214.8"/>
<text text-anchor="middle" x="293" y="-192.6" font-family="Times,serif" font-size="14.00">ShruggiePipe </text>
</g>
<!-- PipesModule&#45;&gt;ShruggiePipe  -->
<g id="edge16" class="edge">
<title>PipesModule&#45;&gt;ShruggiePipe </title>
<path fill="none" stroke="black" stroke-dasharray="5,2" d="M552.01,-141.8C465.19,-141.8 283.01,-141.8 283.01,-141.8 283.01,-141.8 283.01,-168.79 283.01,-168.79"/>
<polygon fill="black" stroke="black" points="279.51,-168.79 283.01,-178.79 286.51,-168.79 279.51,-168.79"/>
</g>
<!-- TimeAgoPipe  -->
<g id="node18" class="node">
<title>TimeAgoPipe </title>
<polygon fill="#fb8072" stroke="black" points="228.04,-214.8 129.96,-214.8 129.96,-178.8 228.04,-178.8 228.04,-214.8"/>
<text text-anchor="middle" x="179" y="-192.6" font-family="Times,serif" font-size="14.00">TimeAgoPipe </text>
</g>
<!-- PipesModule&#45;&gt;TimeAgoPipe  -->
<g id="edge17" class="edge">
<title>PipesModule&#45;&gt;TimeAgoPipe </title>
<path fill="none" stroke="black" stroke-dasharray="5,2" d="M552.11,-137.8C445.3,-137.8 184.88,-137.8 184.88,-137.8 184.88,-137.8 184.88,-168.78 184.88,-168.78"/>
<polygon fill="black" stroke="black" points="181.38,-168.78 184.88,-178.78 188.38,-168.78 181.38,-168.78"/>
</g>
<!-- ToCoinPipe  -->
<g id="node19" class="node">
<title>ToCoinPipe </title>
<polygon fill="#fb8072" stroke="black" points="111.67,-214.8 24.33,-214.8 24.33,-178.8 111.67,-178.8 111.67,-214.8"/>
<text text-anchor="middle" x="68" y="-192.6" font-family="Times,serif" font-size="14.00">ToCoinPipe </text>
</g>
<!-- PipesModule&#45;&gt;ToCoinPipe  -->
<g id="edge18" class="edge">
<title>PipesModule&#45;&gt;ToCoinPipe </title>
<path fill="none" stroke="black" stroke-dasharray="5,2" d="M551.67,-133.8C424.88,-133.8 75.88,-133.8 75.88,-133.8 75.88,-133.8 75.88,-168.58 75.88,-168.58"/>
<polygon fill="black" stroke="black" points="72.38,-168.58 75.88,-178.58 79.38,-168.58 72.38,-168.58"/>
</g>
</g>
</svg>
