<?xml version="1.0" encoding="UTF-8" standalone="no"?>
<!DOCTYPE svg PUBLIC "-//W3C//DTD SVG 1.1//EN"
 "http://www.w3.org/Graphics/SVG/1.1/DTD/svg11.dtd">
<!-- Generated by graphviz version 2.47.3 (20210619.1520)
 -->
<!-- Title: dependencies Pages: 1 -->
<svg width="538pt" height="174pt"
 viewBox="0.00 0.00 538.00 173.80" xmlns="http://www.w3.org/2000/svg" xmlns:xlink="http://www.w3.org/1999/xlink">
<g id="graph0" class="graph" transform="scale(1 1) rotate(0) translate(4 169.8)">
<title>dependencies</title>
<polygon fill="white" stroke="transparent" points="-4,4 -4,-169.8 534,-169.8 534,4 -4,4"/>
<text text-anchor="middle" x="265" y="-8.2" font-family="sans-serif" font-size="14.00">dependencies</text>
<g id="clust1" class="cluster">
<title>cluster_RootModule</title>
<polygon fill="none" stroke="black" stroke-dasharray="1,5" points="8,-32.8 8,-157.8 522,-157.8 522,-32.8 8,-32.8"/>
</g>
<g id="clust2" class="cluster">
<title>cluster_RootModule_declarations</title>
<polygon fill="none" stroke="black" points="390,-40.8 390,-92.8 514,-92.8 514,-40.8 390,-40.8"/>
</g>
<g id="clust4" class="cluster">
<title>cluster_RootModule_imports</title>
<polygon fill="none" stroke="black" points="16,-40.8 16,-92.8 382,-92.8 382,-40.8 16,-40.8"/>
</g>
<!-- RootComponent -->
<g id="node1" class="node">
<title>RootComponent</title>
<polygon fill="#ffffb3" stroke="black" points="506.06,-84.8 397.94,-84.8 397.94,-48.8 506.06,-48.8 506.06,-84.8"/>
<text text-anchor="middle" x="452" y="-62.6" font-family="Times,serif" font-size="14.00">RootComponent</text>
</g>
<!-- RootModule -->
<g id="node2" class="node">
<title>RootModule</title>
<polygon fill="#8dd3c7" stroke="black" points="300.28,-149.8 297.28,-153.8 276.28,-153.8 273.28,-149.8 213.72,-149.8 213.72,-113.8 300.28,-113.8 300.28,-149.8"/>
<text text-anchor="middle" x="257" y="-127.6" font-family="Times,serif" font-size="14.00">RootModule</text>
</g>
<!-- RootComponent&#45;&gt;RootModule -->
<g id="edge1" class="edge">
<title>RootComponent&#45;&gt;RootModule</title>
<path fill="none" stroke="black" d="M452,-84.91C452,-104.14 452,-131.8 452,-131.8 452,-131.8 310.76,-131.8 310.76,-131.8"/>
<polygon fill="black" stroke="black" points="310.76,-128.3 300.76,-131.8 310.76,-135.3 310.76,-128.3"/>
</g>
<!-- ConsoleModule -->
<g id="node3" class="node">
<title>ConsoleModule</title>
<polygon fill="#8dd3c7" stroke="black" points="373.94,-84.8 370.94,-88.8 349.94,-88.8 346.94,-84.8 268.06,-84.8 268.06,-48.8 373.94,-48.8 373.94,-84.8"/>
<text text-anchor="middle" x="321" y="-62.6" font-family="Times,serif" font-size="14.00">ConsoleModule</text>
</g>
<!-- ConsoleModule&#45;&gt;RootModule -->
<g id="edge2" class="edge">
<title>ConsoleModule&#45;&gt;RootModule</title>
<path fill="none" stroke="black" d="M284.34,-84.91C284.34,-84.91 284.34,-103.79 284.34,-103.79"/>
<polygon fill="black" stroke="black" points="280.84,-103.79 284.34,-113.79 287.84,-103.79 280.84,-103.79"/>
</g>
<!-- TranslateModule -->
<g id="node4" class="node">
<title>TranslateModule</title>
<polygon fill="#8dd3c7" stroke="black" points="249.63,-84.8 246.63,-88.8 225.63,-88.8 222.63,-84.8 138.37,-84.8 138.37,-48.8 249.63,-48.8 249.63,-84.8"/>
<text text-anchor="middle" x="194" y="-62.6" font-family="Times,serif" font-size="14.00">TranslateModule</text>
</g>
<!-- TranslateModule&#45;&gt;RootModule -->
<g id="edge3" class="edge">
<title>TranslateModule&#45;&gt;RootModule</title>
<path fill="none" stroke="black" d="M231.71,-84.91C231.71,-84.91 231.71,-103.79 231.71,-103.79"/>
<polygon fill="black" stroke="black" points="228.21,-103.79 231.71,-113.79 235.21,-103.79 228.21,-103.79"/>
</g>
<!-- WalletModule -->
<g id="node5" class="node">
<title>WalletModule</title>
<polygon fill="#8dd3c7" stroke="black" points="120.37,-84.8 117.37,-88.8 96.37,-88.8 93.37,-84.8 23.63,-84.8 23.63,-48.8 120.37,-48.8 120.37,-84.8"/>
<text text-anchor="middle" x="72" y="-62.6" font-family="Times,serif" font-size="14.00">WalletModule</text>
</g>
<!-- WalletModule&#45;&gt;RootModule -->
<g id="edge4" class="edge">
<title>WalletModule&#45;&gt;RootModule</title>
<path fill="none" stroke="black" d="M72,-84.91C72,-104.14 72,-131.8 72,-131.8 72,-131.8 203.63,-131.8 203.63,-131.8"/>
<polygon fill="black" stroke="black" points="203.63,-135.3 213.63,-131.8 203.63,-128.3 203.63,-135.3"/>
</g>
</g>
</svg>
