<?xml version="1.0" encoding="UTF-8" standalone="no"?>
<!DOCTYPE svg PUBLIC "-//W3C//DTD SVG 1.1//EN"
 "http://www.w3.org/Graphics/SVG/1.1/DTD/svg11.dtd">
<!-- Generated by graphviz version 2.47.3 (20210619.1520)
 -->
<!-- Title: dependencies Pages: 1 -->
<svg width="294pt" height="174pt"
 viewBox="0.00 0.00 294.00 173.80" xmlns="http://www.w3.org/2000/svg" xmlns:xlink="http://www.w3.org/1999/xlink">
<g id="graph0" class="graph" transform="scale(1 1) rotate(0) translate(4 169.8)">
<title>dependencies</title>
<polygon fill="white" stroke="transparent" points="-4,4 -4,-169.8 290,-169.8 290,4 -4,4"/>
<text text-anchor="middle" x="143" y="-8.2" font-family="sans-serif" font-size="14.00">dependencies</text>
<g id="clust1" class="cluster">
<title>cluster_RootModule</title>
<polygon fill="none" stroke="black" stroke-dasharray="1,5" points="8,-32.8 8,-157.8 278,-157.8 278,-32.8 8,-32.8"/>
</g>
<g id="clust2" class="cluster">
<title>cluster_RootModule_declarations</title>
<polygon fill="none" stroke="black" points="146,-40.8 146,-92.8 270,-92.8 270,-40.8 146,-40.8"/>
</g>
<g id="clust4" class="cluster">
<title>cluster_RootModule_imports</title>
<polygon fill="none" stroke="black" points="16,-40.8 16,-92.8 138,-92.8 138,-40.8 16,-40.8"/>
</g>
<!-- RootComponent -->
<g id="node1" class="node">
<title>RootComponent</title>
<polygon fill="#ffffb3" stroke="black" points="262.06,-84.8 153.94,-84.8 153.94,-48.8 262.06,-48.8 262.06,-84.8"/>
<text text-anchor="middle" x="208" y="-62.6" font-family="Times,serif" font-size="14.00">RootComponent</text>
</g>
<!-- RootModule -->
<g id="node2" class="node">
<title>RootModule</title>
<polygon fill="#8dd3c7" stroke="black" points="185.28,-149.8 182.28,-153.8 161.28,-153.8 158.28,-149.8 98.72,-149.8 98.72,-113.8 185.28,-113.8 185.28,-149.8"/>
<text text-anchor="middle" x="142" y="-127.6" font-family="Times,serif" font-size="14.00">RootModule</text>
</g>
<!-- RootComponent&#45;&gt;RootModule -->
<g id="edge1" class="edge">
<title>RootComponent&#45;&gt;RootModule</title>
<path fill="none" stroke="black" d="M169.55,-84.91C169.55,-84.91 169.55,-103.79 169.55,-103.79"/>
<polygon fill="black" stroke="black" points="166.05,-103.79 169.55,-113.79 173.05,-103.79 166.05,-103.79"/>
</g>
<!-- ConsoleModule -->
<g id="node3" class="node">
<title>ConsoleModule</title>
<polygon fill="#8dd3c7" stroke="black" points="129.94,-84.8 126.94,-88.8 105.94,-88.8 102.94,-84.8 24.06,-84.8 24.06,-48.8 129.94,-48.8 129.94,-84.8"/>
<text text-anchor="middle" x="77" y="-62.6" font-family="Times,serif" font-size="14.00">ConsoleModule</text>
</g>
<!-- ConsoleModule&#45;&gt;RootModule -->
<g id="edge2" class="edge">
<title>ConsoleModule&#45;&gt;RootModule</title>
<path fill="none" stroke="black" d="M114.16,-84.91C114.16,-84.91 114.16,-103.79 114.16,-103.79"/>
<polygon fill="black" stroke="black" points="110.66,-103.79 114.16,-113.79 117.66,-103.79 110.66,-103.79"/>
</g>
</g>
</svg>
