<?xml version="1.0" encoding="UTF-8" standalone="no"?>
<!DOCTYPE svg PUBLIC "-//W3C//DTD SVG 1.1//EN"
 "http://www.w3.org/Graphics/SVG/1.1/DTD/svg11.dtd">
<!-- Generated by graphviz version 2.47.3 (20210619.1520)
 -->
<!-- Title: dependencies Pages: 1 -->
<svg width="342pt" height="247pt"
 viewBox="0.00 0.00 342.00 246.80" xmlns="http://www.w3.org/2000/svg" xmlns:xlink="http://www.w3.org/1999/xlink">
<g id="graph0" class="graph" transform="scale(1 1) rotate(0) translate(4 242.8)">
<title>dependencies</title>
<polygon fill="white" stroke="transparent" points="-4,4 -4,-242.8 338,-242.8 338,4 -4,4"/>
<text text-anchor="middle" x="167" y="-8.2" font-family="sans-serif" font-size="14.00">dependencies</text>
<g id="clust1" class="cluster">
<title>cluster_PluginsModule</title>
<polygon fill="none" stroke="black" stroke-dasharray="1,5" points="8,-32.8 8,-230.8 326,-230.8 326,-32.8 8,-32.8"/>
</g>
<g id="clust2" class="cluster">
<title>cluster_PluginsModule_declarations</title>
<polygon fill="none" stroke="black" points="178,-40.8 178,-92.8 318,-92.8 318,-40.8 178,-40.8"/>
</g>
<g id="clust5" class="cluster">
<title>cluster_PluginsModule_exports</title>
<polygon fill="none" stroke="black" points="99,-170.8 99,-222.8 241,-222.8 241,-170.8 99,-170.8"/>
</g>
<g id="clust7" class="cluster">
<title>cluster_PluginsModule_providers</title>
<polygon fill="none" stroke="black" points="16,-40.8 16,-92.8 170,-92.8 170,-40.8 16,-40.8"/>
</g>
<!-- PluginsComponent -->
<g id="node1" class="node">
<title>PluginsComponent</title>
<polygon fill="#ffffb3" stroke="black" points="309.84,-84.8 186.16,-84.8 186.16,-48.8 309.84,-48.8 309.84,-84.8"/>
<text text-anchor="middle" x="248" y="-62.6" font-family="Times,serif" font-size="14.00">PluginsComponent</text>
</g>
<!-- PluginsModule -->
<g id="node2" class="node">
<title>PluginsModule</title>
<polygon fill="#8dd3c7" stroke="black" points="220.56,-149.8 217.56,-153.8 196.56,-153.8 193.56,-149.8 119.44,-149.8 119.44,-113.8 220.56,-113.8 220.56,-149.8"/>
<text text-anchor="middle" x="170" y="-127.6" font-family="Times,serif" font-size="14.00">PluginsModule</text>
</g>
<!-- PluginsComponent&#45;&gt;PluginsModule -->
<g id="edge1" class="edge">
<title>PluginsComponent&#45;&gt;PluginsModule</title>
<path fill="none" stroke="black" d="M203.55,-84.91C203.55,-84.91 203.55,-103.79 203.55,-103.79"/>
<polygon fill="black" stroke="black" points="200.05,-103.79 203.55,-113.79 207.05,-103.79 200.05,-103.79"/>
</g>
<!-- PluginsComponent  -->
<g id="node3" class="node">
<title>PluginsComponent </title>
<polygon fill="#fb8072" stroke="black" points="233.34,-214.8 106.66,-214.8 106.66,-178.8 233.34,-178.8 233.34,-214.8"/>
<text text-anchor="middle" x="170" y="-192.6" font-family="Times,serif" font-size="14.00">PluginsComponent </text>
</g>
<!-- PluginsModule&#45;&gt;PluginsComponent  -->
<g id="edge2" class="edge">
<title>PluginsModule&#45;&gt;PluginsComponent </title>
<path fill="none" stroke="black" stroke-dasharray="5,2" d="M170,-149.91C170,-149.91 170,-168.79 170,-168.79"/>
<polygon fill="black" stroke="black" points="166.5,-168.79 170,-178.79 173.5,-168.79 166.5,-168.79"/>
</g>
<!-- PluginsService -->
<g id="node4" class="node">
<title>PluginsService</title>
<ellipse fill="#fdb462" stroke="black" cx="93" cy="-66.8" rx="68.94" ry="18"/>
<text text-anchor="middle" x="93" y="-62.6" font-family="Times,serif" font-size="14.00">PluginsService</text>
</g>
<!-- PluginsService&#45;&gt;PluginsModule -->
<g id="edge3" class="edge">
<title>PluginsService&#45;&gt;PluginsModule</title>
<path fill="none" stroke="black" d="M140.59,-79.95C140.59,-79.95 140.59,-103.49 140.59,-103.49"/>
<polygon fill="black" stroke="black" points="137.09,-103.49 140.59,-113.49 144.09,-103.49 137.09,-103.49"/>
</g>
</g>
</svg>
